<?xml version="1.0" encoding="UTF-8"?><svg id="Active" xmlns="http://www.w3.org/2000/svg" viewBox="0 0 24 24"><defs><style>.cls-1{fill:#e0e0e0;}</style></defs><path class="cls-1" d="M11.95,3.48c1.04,2.1.88,4.85,0,6.6-.91-1.24-1.17-4.83,0-6.6Z"/><path class="cls-1" d="M19.33,7.79c-.78,1.69-4,3.36-5.67,3.3.63-1.41,3.52-3.36,5.67-3.3Z"/><path class="cls-1" d="M11.93,20.62c-1.08-1.51-.91-5.36,0-6.54.89,1.32,1.12,4.73,0,6.54Z"/><path class="cls-1" d="M4.45,16.33c1.3-1.96,3.76-3.18,5.71-3.31-.27,1.23-3.8,3.48-5.71,3.31Z"/><path class="cls-1" d="M10.2,11.1c-1.71.05-4.95-1.65-5.66-3.28,1.78-.14,4.84,1.65,5.66,3.28Z"/><path class="cls-1" d="M13.64,13.02c1.97.12,4.43,1.34,5.71,3.28-1.51.41-5.12-1.85-5.71-3.28Z"/><path class="cls-1" d="M5.09,10.95c.65.61.78.78,1.85,1.11-1.01.31-1.12.42-1.85,1.1.25-.74.25-1.45,0-2.21Z"/><path class="cls-1" d="M16.95,12.07c.73-.16,1.34-.52,1.84-1.08-.23.72-.23,1.44,0,2.17-.5-.56-1.11-.92-1.84-1.08Z"/><path class="cls-1" d="M9.07,16.6c-.26.73-.26,1.45,0,2.19-.55-.58-1.22-.94-2.03-1.1.81-.15,1.48-.51,2.02-1.09Z"/><path class="cls-1" d="M8.97,7.62c-.77-.73-.99-.85-2.02-1.13.81-.15,1.46-.51,1.99-1.09-.25.73-.26,1.46.02,2.22Z"/><path class="cls-1" d="M14.86,5.31c.53.58,1.18.94,1.96,1.09-.78.15-1.43.51-1.96,1.09.25-.73.26-1.46,0-2.19Z"/><path class="cls-1" d="M14.96,16.67c.5.55,1.17.91,1.98,1.06-.8.15-1.48.51-1.99,1.07.05-.34.14-.7.14-1.07,0-.37-.09-.73-.14-1.07Z"/><path class="cls-1" d="M21.39,14.14c-.75-1.25-.69-3.04,0-4.11.69,1.37.69,2.73,0,4.11Z"/><path class="cls-1" d="M5.44,4.89c.4-1.05,2.35-2.17,3.47-2.01-.52,1.1-2.15,2.08-3.47,2.01Z"/><path class="cls-1" d="M2.46,10.03c.67,1.04.76,2.83.02,4.05-.66-.93-.78-2.83-.02-4.05Z"/><path class="cls-1" d="M18.42,19.23c-.48,1.1-2.42,2.21-3.49,2.01.52-1.05,2.04-2.04,3.49-2.01Z"/><path class="cls-1" d="M5.42,19.24c1.39-.03,2.92.9,3.49,2.01-1.02.23-2.98-.89-3.49-2.01Z"/><path class="cls-1" d="M14.93,2.89c1.1-.17,3.05.95,3.47,2.01-1.16.14-3.14-1.01-3.47-2.01Z"/></svg>