<?xml version="1.0" encoding="UTF-8"?><svg id="Layer_2" xmlns="http://www.w3.org/2000/svg" viewBox="0 0 379.45 77.95"><g id="Layer_5"><path d="M59.46,54.74v3.18c-.82,14.07-7.7,20.03-21.16,20.03h-17.05c-15.92,0-21.26-8.73-21.26-22.8v-12.43c0-13.66,5.34-22.49,21.26-22.49h17.05c13.86,0,20.33,6.47,21.16,19.82v3.18s-17.1,0-17.1,0l-.16-3.18c-.31-2.98-1.23-3.8-4.31-3.8h-16.23c-3.08,0-4.42.92-4.42,4.83v16.02c0,3.9,1.44,4.83,4.42,4.83h16.23c3.29,0,4.11-1.03,4.31-4.01v-3.18h17.25Z"/><path d="M63.55,55.15v-12.43c0-13.66,5.34-22.49,21.26-22.49h17.05c15.92,0,21.26,8.83,21.26,22.49v12.43c0,14.07-5.34,22.8-21.26,22.8h-17.05c-15.92,0-21.26-8.73-21.26-22.8ZM101.45,61.93c2.98,0,4.42-.92,4.42-4.83v-16.02c0-3.9-1.34-4.83-4.42-4.83h-16.23c-3.08,0-4.42.92-4.42,4.83v16.02c0,3.9,1.44,4.83,4.42,4.83h16.23Z"/><path d="M231.12,0h17.25s0,0,0,0v77.95h-17.25v-5.96c-2.57,3.8-6.88,5.96-13.66,5.96h-7.39c-15.92,0-21.26-8.83-21.26-22.49v-12.43c0-14.07,5.34-22.8,21.26-22.8h7.39c6.78,0,11.09,2.16,13.66,5.96V0s0,0,0,0ZM231.12,57.1v-16.02c0-3.9-1.44-4.83-4.42-4.83h-16.23c-2.98,0-4.42.92-4.42,4.83v16.02c0,3.9,1.34,4.83,4.42,4.83h16.23c3.08,0,4.42-.92,4.42-4.83Z"/><path d="M292.71,20.23h17.25v57.72h-17.25v-6.06c-2.57,3.9-6.88,6.06-13.66,6.06h-5.34c-15.92,0-21.26-8.73-21.26-22.8V20.23h17.25v36.87c0,3.9,1.44,4.83,4.42,4.83h14.17c2.98,0,4.42-.92,4.42-4.83V20.23Z"/><path d="M314.05,14.38V0s0,0,0,0h17.25v14.38s0,0,0,0h-17.25ZM314.05,77.95V20.23s0,0,0,0h17.25v57.72h-17.25Z"/><path d="M340.83,56.18v-20.54h-5.44v-15.41h3.08c6.16-.21,7.76-4.38,7.76-14.79h11.86v14.79h21.36v15.41h-21.36v22.49c0,3.18,1.23,4.31,5.55,4.31h15.82v15.51h-15.82c-18.59,0-22.8-7.39-22.8-21.77Z"/><path d="M127.21,22.68v55.27h17.25v-36.87c0-.4.02-.76.05-1.09l-17.3-17.3Z"/><path d="M163.46,20.23h-5.34c-5.81,0-9.81,1.59-12.45,4.5v12.37c.73-.64,1.79-.85,3.21-.85h14.17c2.98,0,4.42.92,4.42,4.83v36.87h17.25v-34.92c0-14.07-5.34-22.8-21.26-22.8Z"/></g></svg>