<svg width="27" height="25" viewBox="0 0 27 25" fill="none" xmlns="http://www.w3.org/2000/svg">
<path d="M13.7266 0.371582C15.4559 3.85775 15.4633 7.2503 13.7468 10.6832C11.9514 8.24897 11.799 3.30151 13.7266 0.371582Z" fill="#E0E0E0"/>
<path d="M24.0458 6.4022C22.7534 9.20546 18.4742 11.6893 15.1973 11.5736C16.4401 8.81443 20.4825 6.30858 24.0458 6.4022Z" fill="#E0E0E0"/>
<path d="M13.6842 24.3672C11.8998 21.8705 11.9108 16.4714 13.6732 14.1528C15.4117 16.7431 15.5328 21.373 13.6842 24.3672Z" fill="#E0E0E0"/>
<path d="M3.21973 18.3643C5.37128 15.1095 8.31772 13.4206 12.1343 13.1746C11.5946 15.5978 6.37913 18.6599 3.21973 18.3643Z" fill="#E0E0E0"/>
<path d="M12.1963 11.5771C8.83499 11.6652 4.51354 9.1502 3.33496 6.44241C6.28324 6.20743 10.5698 8.381 12.1963 11.5771Z" fill="#E0E0E0"/>
<path d="M15.1494 13.1746C19.0211 13.4169 21.9675 15.1113 24.0824 18.3129C21.5857 18.9904 16.3096 15.9668 15.1494 13.1746Z" fill="#E0E0E0"/>
<path d="M25.5559 16.2585C24.146 13.9124 24.2598 10.5767 25.5669 8.56104C26.8538 11.133 26.8593 13.6664 25.5559 16.2585Z" fill="#E0E0E0"/>
<path d="M4.47352 4.02296C5.22986 2.06417 8.8684 -0.041488 10.9741 0.261418C10.0029 2.31934 6.95367 4.1533 4.47168 4.02296H4.47352Z" fill="#E0E0E0"/>
<path d="M1.81514 8.59033C3.07449 10.5344 3.2287 13.8774 1.84451 16.1758C0.610857 14.4392 0.388726 10.8814 1.81514 8.59033Z" fill="#E0E0E0"/>
<path d="M22.8956 20.749C21.9979 22.8069 18.3686 24.8923 16.373 24.5178C17.3442 22.548 20.1842 20.7012 22.8956 20.749Z" fill="#E0E0E0"/>
<path d="M4.45312 20.7545C7.05077 20.7031 9.92195 22.4324 10.9812 24.5179C9.08116 24.9475 5.40407 22.8437 4.45312 20.7545Z" fill="#E0E0E0"/>
<path d="M16.373 0.263293C18.4383 -0.0616421 22.0897 2.04952 22.8736 4.023C20.711 4.28001 16.9954 2.13029 16.373 0.263293Z" fill="#E0E0E0"/>
<path d="M3.80273 9.44043C5.52838 11.078 5.87718 11.5222 8.74469 12.3924C6.04974 13.2075 5.75418 13.5067 3.81558 15.3241C4.48198 13.3562 4.48932 11.4506 3.80457 9.44043H3.80273Z" fill="#E0E0E0"/>
<path d="M18.6816 12.398C20.6257 11.9647 22.2523 11.0174 23.5795 9.50659C22.9609 11.4397 22.9645 13.3544 23.5832 15.2857C22.2504 13.7822 20.6313 12.8239 18.6816 12.3961V12.398Z" fill="#E0E0E0"/>
<path d="M11.5318 16.5322C10.8323 18.4763 10.8378 20.4131 11.5391 22.3719C10.0815 20.8317 8.28608 19.8605 6.13086 19.4493C8.28241 19.0381 10.0723 18.0798 11.5318 16.5322Z" fill="#E0E0E0"/>
<path d="M11.3975 8.3903C9.34513 6.44619 8.7485 6.11208 6.02051 5.37592C8.18307 4.97756 9.91973 4.01376 11.3315 2.46436C10.6614 4.4158 10.6467 6.35624 11.3975 8.3903Z" fill="#E0E0E0"/>
<path d="M15.9717 2.38013C17.3797 3.92403 19.1219 4.87864 21.2019 5.29904C19.1182 5.71209 17.3852 6.67037 15.9772 8.21795C16.6399 6.27017 16.6583 4.33341 15.9717 2.38196V2.38013Z" fill="#E0E0E0"/>
<path d="M16.0906 16.6626C17.4289 18.1239 19.2224 19.0932 21.385 19.5007C19.2408 19.912 17.4472 20.8702 16.0869 22.3572C16.2154 21.4448 16.4614 20.4792 16.4596 19.5136C16.4596 18.5369 16.2154 17.5585 16.0906 16.6626Z" fill="#E0E0E0"/>
</svg>
