<svg width="320" height="67" viewBox="0 0 320 67" fill="none" xmlns="http://www.w3.org/2000/svg">
<g clip-path="url(#clip0_20_6178)">
<path d="M50.1438 46.6922V49.3847C49.4523 61.2977 43.6502 66.344 32.299 66.344H17.9203C4.49457 66.344 -0.00878906 58.9523 -0.00878906 47.0393V36.5149C-0.00878906 24.949 4.49457 17.4727 17.9203 17.4727H32.299C43.9875 17.4727 49.4438 22.9508 50.1438 34.2542V36.9467H35.7229L35.588 34.2542C35.3266 31.731 34.5507 31.0367 31.9533 31.0367H18.2661C15.6686 31.0367 14.5386 31.8157 14.5386 35.1263V48.6904C14.5386 51.9925 15.753 52.7799 18.2661 52.7799H31.9533C34.7278 52.7799 35.4193 51.9078 35.588 49.3847V46.6922H50.1354H50.1438Z" fill="white"/>
<path d="M53.5928 47.0393V36.5149C53.5928 24.949 58.0961 17.4727 71.5219 17.4727H85.9006C99.3263 17.4727 103.83 24.949 103.83 36.5149V47.0393C103.83 58.9523 99.3263 66.344 85.9006 66.344H71.5219C58.0961 66.344 53.5928 58.9523 53.5928 47.0393ZM85.5548 52.7799C88.0679 52.7799 89.2823 52.0009 89.2823 48.6904V35.1263C89.2823 31.8242 88.1523 31.0367 85.5548 31.0367H71.8676C69.2702 31.0367 68.1401 31.8157 68.1401 35.1263V48.6904C68.1401 51.9925 69.3545 52.7799 71.8676 52.7799H85.5548Z" fill="white"/>
<path d="M194.91 0.34375H209.457V66.3438H194.91V61.2974C192.742 64.5149 189.108 66.3438 183.39 66.3438H177.158C163.732 66.3438 159.229 58.8674 159.229 47.3015V36.7771C159.229 24.8641 163.732 17.4724 177.158 17.4724H183.39C189.108 17.4724 192.742 19.3013 194.91 22.5187V0.34375ZM194.91 48.6901V35.126C194.91 31.8239 193.695 31.0365 191.182 31.0365H177.495C174.982 31.0365 173.767 31.8155 173.767 35.126V48.6901C173.767 51.9922 174.898 52.7797 177.495 52.7797H191.182C193.78 52.7797 194.91 52.0007 194.91 48.6901Z" fill="white"/>
<path d="M246.85 17.4727H261.397V66.344H246.85V61.213C244.682 64.5151 241.048 66.344 235.33 66.344H230.827C217.401 66.344 212.897 58.9523 212.897 47.0393V17.4727H227.445V48.6904C227.445 51.9925 228.659 52.7799 231.172 52.7799H243.122C245.635 52.7799 246.85 52.0009 246.85 48.6904V17.4727Z" fill="white"/>
<path d="M264.847 12.5192V0.34375H279.394V12.5192H264.847ZM264.847 66.3438V17.4724H279.394V66.3438H264.847Z" fill="white"/>
<path d="M287.43 47.9116V30.5204H282.843V17.4728H285.44C290.635 17.295 291.984 13.7643 291.984 4.9502H301.986V17.4728H320V30.5204H301.986V49.5626C301.986 52.2551 303.024 53.2119 306.667 53.2119H320.008V66.3442H306.667C290.989 66.3442 287.439 60.0871 287.439 47.9116H287.43Z" fill="white"/>
<path d="M107.279 19.5469V66.3438H121.827V35.1261C121.827 34.7874 121.844 34.4826 121.869 34.2032L107.279 19.5553V19.5469Z" fill="white"/>
<path d="M137.849 17.4727H133.346C128.446 17.4727 125.073 18.8189 122.847 21.2828V31.7564C123.462 31.2145 124.356 31.0367 125.554 31.0367H137.504C140.017 31.0367 141.231 31.8157 141.231 35.1263V66.344H155.779V36.7773C155.779 24.8643 151.275 17.4727 137.849 17.4727Z" fill="white"/>
</g>
<defs>
<clipPath id="clip0_20_6178">
<rect width="320" height="66" fill="white" transform="translate(0 0.34375)"/>
</clipPath>
</defs>
</svg>
