<svg width="134" height="89" viewBox="0 0 134 89" fill="none" xmlns="http://www.w3.org/2000/svg">
<g clip-path="url(#clip0_34_2854)">
<path d="M8.42437 51.5726C8.29055 51.5726 8.18035 51.6828 8.18035 51.8166C8.18035 51.9504 8.29055 52.0606 8.42437 52.0606C8.5582 52.0606 8.6684 51.9504 8.6684 51.8166C8.6684 51.6828 8.5582 51.5726 8.42437 51.5726ZM8.42437 44.0235C8.15673 44.0235 7.93632 44.2439 7.93632 44.5116C7.93632 44.7792 8.15673 44.9996 8.42437 44.9996C8.69202 44.9996 8.91243 44.7792 8.91243 44.5116C8.91243 44.2439 8.69202 44.0235 8.42437 44.0235ZM8.42437 36.5296C8.0544 36.5296 7.75527 36.8287 7.75527 37.1987C7.75527 37.5686 8.0544 37.8678 8.42437 37.8678C8.79435 37.8678 9.09348 37.5686 9.09348 37.1987C9.09348 36.8287 8.79435 36.5296 8.42437 36.5296ZM8.42437 29.0986C7.99142 29.0986 7.62932 29.4528 7.62932 29.8858C7.62932 30.3187 7.98355 30.6729 8.42437 30.6729C8.8652 30.6729 9.21155 30.3187 9.21155 29.8858C9.21155 29.4528 8.85732 29.0986 8.42437 29.0986ZM8.42437 21.7306C7.95207 21.7306 7.57422 22.1084 7.57422 22.5807C7.57422 23.053 7.95207 23.4309 8.42437 23.4309C8.89668 23.4309 9.27453 23.0452 9.27453 22.5807C9.27453 22.1163 8.89668 21.7306 8.42437 21.7306ZM8.42437 16.1101C8.88094 16.1101 9.25879 15.7401 9.25879 15.2757C9.25879 14.8113 8.88881 14.4491 8.42437 14.4491C7.95994 14.4491 7.59783 14.8191 7.59783 15.2757C7.59783 15.7323 7.96781 16.1101 8.42437 16.1101ZM8.42437 8.71847C8.84158 8.71847 9.1722 8.38786 9.1722 7.97065C9.1722 7.55344 8.83371 7.22283 8.42437 7.22283C8.01504 7.22283 7.67655 7.56132 7.67655 7.97065C7.67655 8.37998 8.01504 8.71847 8.42437 8.71847ZM7.8025 0.65774C7.8025 1.0041 8.08589 1.28748 8.43225 1.28748C8.7786 1.28748 9.06199 1.0041 9.06199 0.65774M15.7373 62.6955C15.6901 62.6955 15.6586 62.7348 15.6586 62.7742C15.6586 62.8135 15.6979 62.8529 15.7373 62.8529C15.7766 62.8529 15.816 62.8135 15.816 62.7742C15.816 62.7348 15.7766 62.6955 15.7373 62.6955ZM15.7373 55.0441C15.5011 55.0441 15.3122 55.233 15.3122 55.4691C15.3122 55.7053 15.5011 55.8942 15.7373 55.8942C15.9734 55.8942 16.1624 55.7053 16.1624 55.4691C16.1624 55.233 15.9734 55.0441 15.7373 55.0441ZM15.7373 47.4084C15.3201 47.4084 14.9895 47.7469 14.9895 48.1562C14.9895 48.5656 15.3279 48.904 15.7373 48.904C16.1466 48.904 16.4851 48.5656 16.4851 48.1562C16.4851 47.7469 16.1466 47.4084 15.7373 47.4084ZM15.7373 39.8357C15.1784 39.8357 14.7218 40.2923 14.7218 40.8512C14.7218 41.4101 15.1784 41.8667 15.7373 41.8667C16.2962 41.8667 16.7527 41.4101 16.7527 40.8512C16.7527 40.2923 16.2962 39.8357 15.7373 39.8357ZM15.7373 32.326C15.0682 32.326 14.525 32.8692 14.525 33.5383C14.525 34.2074 15.0682 34.7505 15.7373 34.7505C16.4064 34.7505 16.9495 34.2074 16.9495 33.5383C16.9495 32.8692 16.4064 32.326 15.7373 32.326ZM15.7373 24.8793C14.9895 24.8793 14.3833 25.4854 14.3833 26.2332C14.3833 26.9811 14.9895 27.5872 15.7373 27.5872C16.4851 27.5872 17.0912 26.9811 17.0912 26.2332C17.0912 25.4854 16.4851 24.8793 15.7373 24.8793ZM15.7373 17.5113C14.958 17.5113 14.3204 18.1489 14.3204 18.9282C14.3204 19.7075 14.958 20.3451 15.7373 20.3451C16.5166 20.3451 17.1542 19.7075 17.1542 18.9282C17.1542 18.1489 16.5166 17.5113 15.7373 17.5113ZM15.7373 13.0244C16.5087 13.0244 17.1385 12.3946 17.1385 11.6232C17.1385 10.8517 16.5166 10.222 15.7373 10.222C14.958 10.222 14.3361 10.8517 14.3361 11.6232C14.3361 12.3946 14.9658 13.0244 15.7373 13.0244ZM15.7373 5.63272C16.4615 5.63272 17.0519 5.04234 17.0519 4.31813C17.0519 3.59392 16.4615 3.00354 15.7373 3.00354C15.0131 3.00354 14.4227 3.59392 14.4227 4.31813C14.4227 5.04234 15.0131 5.63272 15.7373 5.63272ZM23.0423 73.653C22.9951 73.653 22.9636 73.6924 22.9636 73.7317C22.9636 73.7711 23.003 73.8105 23.0423 73.8105C23.0817 73.8105 23.121 73.7711 23.121 73.7317C23.121 73.6924 23.0817 73.653 23.0423 73.653ZM23.0423 65.9465C22.7747 65.9465 22.5543 66.1669 22.5543 66.4346C22.5543 66.7022 22.7747 66.9226 23.0423 66.9226C23.31 66.9226 23.5304 66.7022 23.5304 66.4346C23.5304 66.1669 23.31 65.9465 23.0423 65.9465ZM23.0423 58.2479C22.5621 58.2479 22.1686 58.6415 22.1686 59.1217C22.1686 59.6018 22.5621 59.9954 23.0423 59.9954C23.5225 59.9954 23.9161 59.6018 23.9161 59.1217C23.9161 58.6415 23.5225 58.2479 23.0423 58.2479ZM23.0423 50.5965C22.3732 50.5965 21.8301 51.1396 21.8301 51.8088C21.8301 52.4779 22.3732 53.021 23.0423 53.021C23.7114 53.021 24.2546 52.4779 24.2546 51.8088C24.2546 51.1396 23.7114 50.5965 23.0423 50.5965ZM23.0423 42.9845C22.2 42.9845 21.5231 43.6614 21.5231 44.5037C21.5231 45.346 22.2 46.023 23.0423 46.023C23.8846 46.023 24.5616 45.346 24.5616 44.5037C24.5616 43.6614 23.8846 42.9845 23.0423 42.9845ZM23.0423 35.459C22.082 35.459 21.3027 36.2383 21.3027 37.1987C21.3027 38.159 22.082 38.9383 23.0423 38.9383C24.0027 38.9383 24.782 38.159 24.782 37.1987C24.782 36.2383 24.0027 35.459 23.0423 35.459ZM23.0423 27.9887C21.9875 27.9887 21.1373 28.8388 21.1373 29.8936C21.1373 30.9485 21.9875 31.7986 23.0423 31.7986C24.0971 31.7986 24.9473 30.9485 24.9473 29.8936C24.9473 28.8388 24.0971 27.9887 23.0423 27.9887ZM23.0423 20.597C21.9481 20.597 21.0586 21.4865 21.0586 22.5807C21.0586 23.6749 21.9481 24.5644 23.0423 24.5644C24.1365 24.5644 25.026 23.6749 25.026 22.5807C25.026 21.4865 24.1365 20.597 23.0423 20.597ZM23.0423 17.2436C24.1286 17.2436 25.0103 16.362 25.0103 15.2757C25.0103 14.1894 24.1286 13.3077 23.0423 13.3077C21.956 13.3077 21.0744 14.1894 21.0744 15.2757C21.0744 16.362 21.956 17.2436 23.0423 17.2436ZM23.0423 9.83627C24.0735 9.83627 24.9079 9.00186 24.9079 7.97065C24.9079 6.93944 24.0735 6.10503 23.0423 6.10503C22.0111 6.10503 21.1767 6.93944 21.1767 7.97065C21.1767 9.00186 22.0111 9.83627 23.0423 9.83627ZM21.3578 0.65774C21.3578 1.58661 22.1134 2.34231 23.0423 2.34231C23.9712 2.34231 24.7269 1.58661 24.7269 0.65774M30.3474 69.6541C30.1112 69.6541 29.9223 69.8431 29.9223 70.0792C29.9223 70.3154 30.1112 70.5043 30.3474 70.5043C30.5835 70.5043 30.7724 70.3154 30.7724 70.0792C30.7724 69.8431 30.5835 69.6541 30.3474 69.6541ZM30.3474 61.9083C29.8672 61.9083 29.4736 62.294 29.4736 62.782C29.4736 63.2701 29.8672 63.6558 30.3474 63.6558C30.8275 63.6558 31.2211 63.2622 31.2211 62.782C31.2211 62.3019 30.8275 61.9083 30.3474 61.9083ZM30.3474 54.1703C29.631 54.1703 29.0485 54.7528 29.0485 55.4691C29.0485 56.1855 29.631 56.768 30.3474 56.768C31.0637 56.768 31.6462 56.1855 31.6462 55.4691C31.6462 54.7528 31.0637 54.1703 30.3474 54.1703ZM30.3474 46.4795C29.4185 46.4795 28.6628 47.2352 28.6628 48.1641C28.6628 49.093 29.4185 49.8487 30.3474 49.8487C31.2762 49.8487 32.0319 49.093 32.0319 48.1641C32.0319 47.2352 31.2762 46.4795 30.3474 46.4795ZM30.3474 38.8439C29.2374 38.8439 28.34 39.7413 28.34 40.8512C28.34 41.9611 29.2374 42.8585 30.3474 42.8585C31.4573 42.8585 32.3547 41.9611 32.3547 40.8512C32.3547 39.7413 31.4573 38.8439 30.3474 38.8439ZM30.3474 31.2791C29.0957 31.2791 28.0803 32.2945 28.0803 33.5462C28.0803 34.7978 29.0957 35.8132 30.3474 35.8132C31.599 35.8132 32.6144 34.7978 32.6144 33.5462C32.6144 32.2945 31.599 31.2791 30.3474 31.2791ZM30.3474 23.7851C28.9934 23.7851 27.8992 24.8793 27.8992 26.2332C27.8992 27.5872 28.9934 28.6814 30.3474 28.6814C31.7013 28.6814 32.7955 27.5793 32.7955 26.2332C32.7955 24.8872 31.7013 23.7851 30.3474 23.7851ZM30.3474 16.3777C28.9383 16.3777 27.7969 17.5192 27.7969 18.9282C27.7969 20.3373 28.9383 21.4787 30.3474 21.4787C31.7564 21.4787 32.8978 20.3373 32.8978 18.9282C32.8978 17.5192 31.7564 16.3777 30.3474 16.3777ZM30.3474 14.1579C31.7485 14.1579 32.8821 13.0244 32.8821 11.6232C32.8821 10.222 31.7485 9.08845 30.3474 9.08845C28.9462 9.08845 27.8126 10.222 27.8126 11.6232C27.8126 13.0244 28.9462 14.1579 30.3474 14.1579ZM30.3474 6.7269C31.6777 6.7269 32.7561 5.64847 32.7561 4.31813C32.7561 2.9878 31.6777 1.90936 30.3474 1.90936C29.017 1.90936 27.9307 2.9878 27.9307 4.31813C27.9307 5.64847 29.0092 6.7269 30.3474 6.7269ZM37.6603 80.8006C37.5264 80.8006 37.4162 80.9108 37.4162 81.0446C37.4162 81.1785 37.5264 81.2887 37.6603 81.2887C37.7941 81.2887 37.9043 81.1785 37.9043 81.0446C37.9043 80.9108 37.7941 80.8006 37.6603 80.8006ZM37.6603 72.9839C37.2431 72.9839 36.9124 73.3224 36.9124 73.7317C36.9124 74.1411 37.2509 74.4796 37.6603 74.4796C38.0696 74.4796 38.4081 74.1411 38.4081 73.7317C38.4081 73.3224 38.0696 72.9839 37.6603 72.9839ZM37.6603 65.2144C36.9912 65.2144 36.448 65.7576 36.448 66.4267C36.448 67.0958 36.9912 67.639 37.6603 67.639C38.3294 67.639 38.8725 67.0958 38.8725 66.4267C38.8725 65.7576 38.3294 65.2144 37.6603 65.2144ZM37.6603 57.4371C36.7314 57.4371 35.9757 58.1928 35.9757 59.1217C35.9757 60.0505 36.7314 60.8062 37.6603 60.8062C38.5891 60.8062 39.3448 60.0505 39.3448 59.1217C39.3448 58.1928 38.5891 57.4371 37.6603 57.4371ZM37.6603 49.707C36.4952 49.707 35.5506 50.6516 35.5506 51.8166C35.5506 52.9816 36.4952 53.9263 37.6603 53.9263C38.8253 53.9263 39.7699 52.9816 39.7699 51.8166C39.7699 50.6516 38.8253 49.707 37.6603 49.707ZM37.6603 42.032C36.2984 42.032 35.1885 43.1419 35.1885 44.5037C35.1885 45.8655 36.2984 46.9755 37.6603 46.9755C39.0221 46.9755 40.132 45.8655 40.132 44.5037C40.132 43.1419 39.0221 42.032 37.6603 42.032ZM37.6603 34.4199C36.1253 34.4199 34.8815 35.6637 34.8815 37.1987C34.8815 38.7337 36.1253 39.9774 37.6603 39.9774C39.1953 39.9774 40.439 38.7337 40.439 37.1987C40.439 35.6637 39.1953 34.4199 37.6603 34.4199ZM37.6603 26.8945C36.0072 26.8945 34.6611 28.2406 34.6611 29.8936C34.6611 31.5467 36.0072 32.8928 37.6603 32.8928C39.3133 32.8928 40.6594 31.5467 40.6594 29.8936C40.6594 28.2406 39.3133 26.8945 37.6603 26.8945ZM37.6603 19.4635C35.9363 19.4635 34.543 20.8647 34.543 22.5807C34.543 24.2968 35.9363 25.698 37.6603 25.698C39.3842 25.698 40.7775 24.3047 40.7775 22.5807C40.7775 20.8568 39.3842 19.4635 37.6603 19.4635ZM37.6603 18.3772C39.3685 18.3772 40.7618 16.9917 40.7618 15.2757C40.7618 13.5596 39.3763 12.1742 37.6603 12.1742C35.9442 12.1742 34.5588 13.5596 34.5588 15.2757C34.5588 16.9917 35.9442 18.3772 37.6603 18.3772ZM37.6603 10.9304C39.2976 10.9304 40.6201 9.60799 40.6201 7.97065C40.6201 6.33331 39.2976 5.01085 37.6603 5.01085C36.0229 5.01085 34.7005 6.33331 34.7005 7.97065C34.7005 9.60799 36.0229 10.9304 37.6603 10.9304ZM34.9602 0.65774C34.9602 2.14551 36.1646 3.3499 37.6524 3.3499C39.1402 3.3499 40.3446 2.14551 40.3446 0.65774M44.9653 76.9041C44.6977 76.9041 44.4773 77.1245 44.4773 77.3921C44.4773 77.6598 44.6977 77.8802 44.9653 77.8802C45.2329 77.8802 45.4534 77.6598 45.4534 77.3921C45.4534 77.1245 45.2329 76.9041 44.9653 76.9041ZM44.9653 69.0716C44.4064 69.0716 43.9498 69.5282 43.9498 70.0871C43.9498 70.646 44.4064 71.1025 44.9653 71.1025C45.5242 71.1025 45.9808 70.646 45.9808 70.0871C45.9808 69.5282 45.5242 69.0716 44.9653 69.0716ZM44.9653 61.2549C44.123 61.2549 43.446 61.9319 43.446 62.7742C43.446 63.6165 44.1309 64.2934 44.9653 64.2934C45.7997 64.2934 46.4846 63.6165 46.4846 62.7742C46.4846 61.9319 45.8076 61.2549 44.9653 61.2549ZM44.9653 53.4618C43.8554 53.4618 42.958 54.3592 42.958 55.4691C42.958 56.5791 43.8554 57.4764 44.9653 57.4764C46.0752 57.4764 46.9726 56.5791 46.9726 55.4691C46.9726 54.3592 46.0752 53.4618 44.9653 53.4618ZM44.9653 45.6845C43.6035 45.6845 42.4936 46.7944 42.4936 48.1562C42.4936 49.5181 43.6035 50.628 44.9653 50.628C46.3271 50.628 47.4371 49.5181 47.4371 48.1562C47.4371 46.7944 46.3271 45.6845 44.9653 45.6845ZM44.9653 37.9544C43.3673 37.9544 42.0685 39.2532 42.0685 40.8512C42.0685 42.4492 43.3673 43.748 44.9653 43.748C46.5633 43.748 47.8621 42.4492 47.8621 40.8512C47.8621 39.2532 46.5633 37.9544 44.9653 37.9544ZM44.9653 30.2794C43.1627 30.2794 41.7064 31.7356 41.7064 33.5383C41.7064 35.3409 43.1627 36.7972 44.9653 36.7972C46.7679 36.7972 48.2321 35.3409 48.2321 33.5383C48.2321 31.7356 46.7679 30.2794 44.9653 30.2794ZM44.9653 29.7834C46.9254 29.7834 48.5155 28.1933 48.5155 26.2332C48.5155 24.2732 46.9254 22.6831 44.9653 22.6831C43.0052 22.6831 41.4151 24.2732 41.4151 26.2332C41.4151 28.1933 43.0052 29.7834 44.9653 29.7834ZM41.2734 18.9282C41.2734 20.967 42.9265 22.6122 44.9574 22.6122C46.9884 22.6122 48.6493 20.9591 48.6493 18.9282C48.6493 16.8973 47.0671 15.3308 45.0991 15.2521C47.0513 15.1812 48.6099 13.5832 48.6099 11.6153C48.6099 9.64734 46.9805 7.97065 44.9653 7.97065C42.9501 7.97065 41.3207 9.60011 41.3207 11.6153C41.3207 13.6305 42.8793 15.1734 44.8315 15.2521C42.8635 15.3229 41.2813 16.9366 41.2813 18.9282H41.2734ZM44.9653 7.78173C46.8782 7.78173 48.4289 6.23098 48.4289 4.31813C48.4289 2.40528 46.8782 0.854535 44.9653 0.854535C43.0525 0.854535 41.5017 2.40528 41.5017 4.31813C41.5017 6.23098 43.0525 7.78173 44.9653 7.78173ZM52.2703 88.2316C52.1995 88.2316 52.1523 88.2867 52.1523 88.3497C52.1523 88.4127 52.2074 88.4678 52.2703 88.4678C52.3333 88.4678 52.3884 88.4127 52.3884 88.3497C52.3884 88.2867 52.3333 88.2316 52.2703 88.2316ZM52.2703 80.3755C51.9004 80.3755 51.6012 80.6747 51.6012 81.0446C51.6012 81.4146 51.9004 81.7137 52.2703 81.7137C52.6403 81.7137 52.9394 81.4146 52.9394 81.0446C52.9394 80.6747 52.6403 80.3755 52.2703 80.3755ZM52.2703 72.5195C51.6012 72.5195 51.0581 73.0626 51.0581 73.7317C51.0581 74.4008 51.6012 74.944 52.2703 74.944C52.9394 74.944 53.4826 74.4008 53.4826 73.7317C53.4826 73.0626 52.9394 72.5195 52.2703 72.5195ZM52.2703 64.687C51.31 64.687 50.5307 65.4663 50.5307 66.4267C50.5307 67.3871 51.31 68.1664 52.2703 68.1664C53.2307 68.1664 54.01 67.3871 54.01 66.4267C54.01 65.4663 53.2307 64.687 52.2703 64.687ZM52.2703 56.8546C51.0187 56.8546 50.0033 57.87 50.0033 59.1217C50.0033 60.3733 51.0187 61.3887 52.2703 61.3887C53.522 61.3887 54.5374 60.3733 54.5374 59.1217C54.5374 57.87 53.522 56.8546 52.2703 56.8546ZM52.2703 49.0379C50.7353 49.0379 49.4916 50.2816 49.4916 51.8166C49.4916 53.3516 50.7353 54.5954 52.2703 54.5954C53.8053 54.5954 55.0491 53.3516 55.0491 51.8166C55.0491 50.2816 53.8053 49.0379 52.2703 49.0379ZM52.2703 41.2448C50.4677 41.2448 49.0114 42.7011 49.0114 44.5037C49.0114 46.3064 50.4756 47.7705 52.2703 47.7705C54.0651 47.7705 55.5371 46.3064 55.5371 44.5037C55.5371 42.7011 54.073 41.2448 52.2703 41.2448ZM59.5833 84.4768C59.4573 84.4768 59.3628 84.5791 59.3628 84.6972C59.3628 84.8152 59.4652 84.9176 59.5833 84.9176C59.7013 84.9176 59.8037 84.8152 59.8037 84.6972C59.8037 84.5791 59.7013 84.4768 59.5833 84.4768ZM59.5833 76.5971C59.1503 76.5971 58.7882 76.9513 58.7882 77.3843C58.7882 77.8172 59.1424 78.1714 59.5833 78.1714C60.0241 78.1714 60.3704 77.8172 60.3704 77.3843C60.3704 76.9513 60.0162 76.5971 59.5833 76.5971ZM59.5833 68.7253C58.8354 68.7253 58.2214 69.3314 58.2214 70.0792C58.2214 70.827 58.8276 71.4332 59.5833 71.4332C60.3389 71.4332 60.9372 70.827 60.9372 70.0792C60.9372 69.3314 60.3311 68.7253 59.5833 68.7253ZM59.5833 60.8692C58.5284 60.8692 57.6783 61.7194 57.6783 62.7742C57.6783 63.829 58.5284 64.6792 59.5833 64.6792C60.6381 64.6792 61.4882 63.829 61.4882 62.7742C61.4882 61.7194 60.6381 60.8692 59.5833 60.8692ZM59.5833 53.0131C58.2293 53.0131 57.1351 54.1152 57.1351 55.4613C57.1351 56.8073 58.2372 57.9094 59.5833 57.9094C60.9293 57.9094 62.0393 56.8152 62.0393 55.4613C62.0393 54.1073 60.9372 53.0131 59.5833 53.0131ZM59.5833 45.1571C57.9302 45.1571 56.5841 46.5031 56.5841 48.1562C56.5841 49.8093 57.9302 51.1554 59.5833 51.1554C61.2363 51.1554 62.5824 49.8093 62.5824 48.1562C62.5824 46.5031 61.2363 45.1571 59.5833 45.1571ZM66.8883 88.0663C66.7309 88.0663 66.6049 88.1923 66.6049 88.3497C66.6049 88.5071 66.7309 88.6331 66.8883 88.6331C67.0457 88.6331 67.1717 88.5071 67.1717 88.3497C67.1717 88.1923 67.0457 88.0663 66.8883 88.0663ZM66.8883 80.1945C66.416 80.1945 66.0381 80.5723 66.0381 81.0446C66.0381 81.517 66.416 81.8948 66.8883 81.8948C67.3606 81.8948 67.7384 81.517 67.7384 81.0446C67.7384 80.5723 67.3527 80.1945 66.8883 80.1945ZM66.8883 72.3148C66.109 72.3148 65.4714 72.9524 65.4714 73.7317C65.4714 74.511 66.109 75.1487 66.8883 75.1487C67.6676 75.1487 68.3052 74.511 68.3052 73.7317C68.3052 72.9524 67.6676 72.3148 66.8883 72.3148ZM66.8883 64.443C65.7941 64.443 64.9046 65.3325 64.9046 66.4267C64.9046 67.5209 65.7941 68.4104 66.8883 68.4104C67.9825 68.4104 68.872 67.5209 68.872 66.4267C68.872 65.3325 67.9825 64.443 66.8883 64.443ZM66.8883 56.5712C65.4792 56.5712 64.3378 57.7126 64.3378 59.1217C64.3378 60.5307 65.4792 61.6721 66.8883 61.6721C68.2973 61.6721 69.4388 60.5307 69.4388 59.1217C69.4388 57.7126 68.2973 56.5712 66.8883 56.5712ZM66.8883 48.6915C65.1644 48.6915 63.771 50.0927 63.771 51.8088C63.771 53.5248 65.1644 54.926 66.8883 54.926C68.6122 54.926 70.0055 53.5248 70.0055 51.8088C70.0055 50.0927 68.6122 48.6915 66.8883 48.6915ZM74.1933 84.4374C74.0516 84.4374 73.9336 84.5555 73.9336 84.6972C73.9336 84.8389 74.0516 84.9569 74.1933 84.9569C74.335 84.9569 74.4531 84.8389 74.4531 84.6972C74.4531 84.5555 74.335 84.4374 74.1933 84.4374ZM74.1933 76.5577C73.7368 76.5577 73.3668 76.9277 73.3668 77.3921C73.3668 77.8566 73.7368 78.2187 74.1933 78.2187C74.6499 78.2187 75.0199 77.8487 75.0199 77.3921C75.0199 76.9356 74.6499 76.5577 74.1933 76.5577ZM74.1933 68.6859C73.4219 68.6859 72.7921 69.3078 72.7921 70.0871C72.7921 70.8664 73.4219 71.4883 74.1933 71.4883C74.9648 71.4883 75.5945 70.8664 75.5945 70.0871C75.5945 69.3078 74.9726 68.6859 74.1933 68.6859ZM74.1933 60.8062C73.107 60.8062 72.2254 61.6879 72.2254 62.7742C72.2254 63.8605 73.107 64.7421 74.1933 64.7421C75.2796 64.7421 76.1613 63.8605 76.1613 62.7742C76.1613 61.6879 75.2796 60.8062 74.1933 60.8062ZM74.1933 52.9344C72.7922 52.9344 71.6586 54.068 71.6586 55.4691C71.6586 56.8703 72.7922 58.0039 74.1933 58.0039C75.5945 58.0039 76.7281 56.8703 76.7281 55.4691C76.7281 54.068 75.5945 52.9344 74.1933 52.9344ZM74.1933 45.0626C72.4852 45.0626 71.0918 46.448 71.0918 48.1641C71.0918 49.8802 72.4773 51.2656 74.1933 51.2656C75.9094 51.2656 77.2948 49.8802 77.2948 48.1641C77.2948 46.448 75.9094 45.0626 74.1933 45.0626ZM81.5062 88.1529C81.396 88.1529 81.3016 88.2395 81.3016 88.3576C81.3016 88.4756 81.396 88.5622 81.5062 88.5622C81.6164 88.5622 81.7109 88.4756 81.7109 88.3576C81.7109 88.2395 81.6243 88.1529 81.5062 88.1529ZM81.5062 80.2968C81.089 80.2968 80.7584 80.6353 80.7584 81.0446C80.7584 81.454 81.0969 81.7925 81.5062 81.7925C81.9156 81.7925 82.2541 81.454 82.2541 81.0446C82.2541 80.6353 81.9156 80.2968 81.5062 80.2968ZM81.5062 72.4171C80.782 72.4171 80.1916 73.0075 80.1916 73.7317C80.1916 74.4559 80.782 75.0463 81.5062 75.0463C82.2305 75.0463 82.8208 74.4559 82.8208 73.7317C82.8208 73.0075 82.2305 72.4171 81.5062 72.4171ZM81.5062 64.569C80.475 64.569 79.6406 65.4034 79.6406 66.4346C79.6406 67.4658 80.475 68.3002 81.5062 68.3002C82.5375 68.3002 83.3719 67.4658 83.3719 66.4346C83.3719 65.4034 82.5375 64.569 81.5062 64.569ZM81.5062 56.7129C80.1759 56.7129 79.0975 57.7913 79.0975 59.1217C79.0975 60.452 80.1759 61.5304 81.5062 61.5304C82.8366 61.5304 83.915 60.452 83.915 59.1217C83.915 57.7913 82.8366 56.7129 81.5062 56.7129ZM81.5062 48.8568C79.8689 48.8568 78.5464 50.1793 78.5464 51.8166C78.5464 53.454 79.8689 54.7764 81.5062 54.7764C83.1436 54.7764 84.466 53.454 84.466 51.8166C84.466 50.1793 83.1436 48.8568 81.5062 48.8568ZM85.3319 0.65774C85.3319 2.14551 84.4739 3.42074 83.2302 4.05836C84.7337 4.71959 85.7806 6.22311 85.7806 7.97065C85.7806 8.38786 85.7177 8.78932 85.6075 9.16716C86.0561 8.58465 86.6544 8.12021 87.3471 7.85257C85.9617 7.27793 84.9777 5.90824 84.9777 4.31813C84.9777 2.20061 86.6938 0.492432 88.8113 0.492432C90.9288 0.492432 92.637 2.20849 92.637 4.31813C92.637 5.91611 91.6609 7.27793 90.2676 7.85257C91.779 8.44296 92.8574 9.89924 92.8574 11.6232C92.8574 13.2369 91.9128 14.6145 90.5509 15.2678C91.9206 15.9212 92.8731 17.3145 92.8731 18.9361C92.8731 20.5577 91.8498 22.0612 90.4014 22.6831C91.7632 23.2971 92.7157 24.6589 92.7157 26.2411C92.7157 28.1225 91.3854 29.689 89.6221 30.0668C91.2043 30.4368 92.393 31.8537 92.393 33.554C92.393 35.5377 90.7871 37.1436 88.8034 37.1436C86.8197 37.1436 85.2139 35.5377 85.2139 33.554C85.2139 31.8537 86.3946 30.4368 87.9847 30.0668C87.0322 29.8621 86.2136 29.3111 85.6547 28.5476C85.7885 28.9726 85.8672 29.4213 85.8672 29.8936C85.8672 31.5939 84.899 33.0581 83.4821 33.7823C84.6628 34.475 85.4579 35.7345 85.4579 37.1987C85.4579 39.1745 84.0095 40.7961 82.1281 41.1031C83.734 41.4022 84.9541 42.8113 84.9541 44.5037C84.9541 46.4166 83.4033 47.9673 81.4905 47.9673C79.5776 47.9673 78.0269 46.4166 78.0269 44.5037C78.0269 42.8113 79.247 41.4022 80.8529 41.1031C78.9636 40.7961 77.5231 39.1666 77.5231 37.1987C77.5231 36.5689 77.6805 35.9785 77.9403 35.4511C77.4522 36.3957 76.6257 37.1278 75.6103 37.4978C76.917 38.0567 77.8301 39.3477 77.8301 40.8512C77.8301 42.8664 76.2006 44.4958 74.1855 44.4958C72.1703 44.4958 70.5408 42.8664 70.5408 40.8512C70.5408 39.3398 71.4539 38.0488 72.7607 37.4978C72.0758 37.2459 71.4776 36.8287 71.0131 36.2934C71.0761 36.5847 71.1154 36.8917 71.1154 37.2065C71.1154 39.0171 69.9819 40.5442 68.3839 41.1503C69.667 41.725 70.5644 43.0081 70.5644 44.5116C70.5644 46.5504 68.9113 48.1956 66.8725 48.1956C64.8337 48.1956 63.1885 46.5425 63.1885 44.5116C63.1885 43.0159 64.0859 41.725 65.369 41.1503C63.7789 40.5442 62.6375 39.0092 62.6375 37.2065C62.6375 36.7421 62.732 36.3092 62.8658 35.892C62.3148 36.6713 61.4961 37.238 60.5515 37.4742C62.0235 37.9071 63.1098 39.2532 63.1098 40.8669C63.1098 42.827 61.5197 44.4171 59.5596 44.4171C57.5996 44.4171 56.0094 42.827 56.0094 40.8669C56.0094 39.2532 57.0958 37.9071 58.5678 37.4742C56.8124 37.0334 55.4978 35.4511 55.4978 33.554C55.4978 32.1292 56.2299 30.8855 57.3398 30.1613C56.9226 29.9251 56.5526 29.626 56.2299 29.2718C56.2613 29.4764 56.2928 29.6811 56.2928 29.8936C56.2928 31.6884 55.1199 33.1919 53.4983 33.7272C54.9231 34.2467 55.9465 35.6007 55.9465 37.1987C55.9465 39.2453 54.2855 40.9063 52.2389 40.9063C50.1922 40.9063 48.5312 39.2453 48.5312 37.1987C48.5312 35.5928 49.5546 34.2389 50.9794 33.7272C49.3578 33.1919 48.1849 31.6884 48.1849 29.8936C48.1849 28.3508 49.0586 27.0283 50.3181 26.3434C48.9484 25.6429 47.9959 24.2338 47.9959 22.5886C47.9959 20.9434 48.8697 19.6524 50.145 18.9203C48.8776 18.1961 48.0117 16.8422 48.0117 15.2757C48.0117 13.599 48.9957 12.1663 50.4205 11.4815C49.1452 10.8202 48.2557 9.50565 48.2557 7.96278C48.2557 6.08929 49.5624 4.5228 51.31 4.10559C49.775 3.69626 48.6414 2.31082 48.6414 0.649868M64.2591 33.9083C64.0308 33.7587 63.8183 33.5934 63.6215 33.4045C63.6215 33.4517 63.6372 33.4989 63.6372 33.5462C63.6372 33.9791 63.5506 34.3884 63.4247 34.7742C63.653 34.4435 63.9442 34.1602 64.2591 33.9083ZM79.5068 33.7823C79.0739 33.5619 78.6803 33.2706 78.3496 32.9164C78.3811 33.1211 78.4126 33.3257 78.4126 33.5383C78.4126 34.2153 78.2473 34.8607 77.9639 35.4275C78.3103 34.7427 78.8456 34.168 79.5147 33.7744L79.5068 33.7823ZM85.0958 27.3904C84.9856 27.0204 84.9069 26.6426 84.9069 26.2411C84.9069 26.0522 84.9383 25.8633 84.962 25.6822C84.7179 25.9577 84.4424 26.2018 84.1433 26.4064C84.5133 26.6819 84.836 27.0204 85.0958 27.3983V27.3904ZM86.1034 15.2757C86.1034 15.504 86.0798 15.7323 86.0483 15.9527C86.3474 15.6771 86.6938 15.441 87.0637 15.2599C86.6859 15.0789 86.3395 14.8427 86.0404 14.5672C86.0798 14.7955 86.1034 15.0317 86.1034 15.2757ZM87.2133 22.6752C86.7961 22.4941 86.4261 22.2422 86.0955 21.9431C86.127 22.1556 86.1427 22.3682 86.1427 22.5807C86.1427 22.8799 86.1112 23.1711 86.0561 23.4624C86.3868 23.1318 86.7804 22.872 87.2133 22.6752ZM88.8113 84.6184C88.7641 84.6184 88.7326 84.6578 88.7326 84.6972C88.7326 84.7365 88.7719 84.7759 88.8113 84.7759C88.8506 84.7759 88.89 84.7365 88.89 84.6972C88.89 84.6578 88.8506 84.6184 88.8113 84.6184ZM88.8113 76.7624C88.4649 76.7624 88.1815 77.0458 88.1815 77.3921C88.1815 77.7385 88.4649 78.0219 88.8113 78.0219C89.1576 78.0219 89.441 77.7385 89.441 77.3921C89.441 77.0458 89.1576 76.7624 88.8113 76.7624ZM88.8113 68.9299C88.1737 68.9299 87.6541 69.4495 87.6541 70.0871C87.6541 70.7247 88.1737 71.2442 88.8113 71.2442C89.4489 71.2442 89.9684 70.7247 89.9684 70.0871C89.9684 69.4495 89.4489 68.9299 88.8113 68.9299ZM88.8113 61.0975C87.8824 61.0975 87.1267 61.8532 87.1267 62.782C87.1267 63.7109 87.8824 64.4666 88.8113 64.4666C89.7402 64.4666 90.4959 63.7109 90.4959 62.782C90.4959 61.8532 89.7402 61.0975 88.8113 61.0975ZM88.8113 53.2572C87.5912 53.2572 86.5993 54.249 86.5993 55.4691C86.5993 56.6893 87.5912 57.6811 88.8113 57.6811C90.0314 57.6811 91.0154 56.6893 91.0154 55.4691C91.0154 54.249 90.0235 53.2572 88.8113 53.2572ZM88.8113 45.4641C87.3235 45.4641 86.1191 46.6685 86.1191 48.1562C86.1191 49.644 87.3235 50.8484 88.8113 50.8484C90.2991 50.8484 91.5034 49.644 91.5034 48.1562C91.5034 46.6685 90.2991 45.4641 88.8113 45.4641ZM88.8113 37.6946C87.0637 37.6946 85.6468 39.1115 85.6468 40.8591C85.6468 42.6066 87.0637 44.0235 88.8113 44.0235C90.5588 44.0235 91.9679 42.6066 91.9679 40.8591C91.9679 39.1115 90.5509 37.6946 88.8113 37.6946ZM96.1163 80.6196C95.8802 80.6196 95.6912 80.8085 95.6912 81.0446C95.6912 81.2808 95.8802 81.4697 96.1163 81.4697C96.3525 81.4697 96.5414 81.2808 96.5414 81.0446C96.5414 80.8085 96.3525 80.6196 96.1163 80.6196ZM96.1163 72.8029C95.6047 72.8029 95.1874 73.2201 95.1874 73.7317C95.1874 74.2434 95.6047 74.6606 96.1163 74.6606C96.628 74.6606 97.0452 74.2434 97.0452 73.7317C97.0452 73.2201 96.628 72.8029 96.1163 72.8029ZM96.1163 64.994C95.3213 64.994 94.6758 65.6395 94.6758 66.4346C94.6758 67.2296 95.3213 67.8751 96.1163 67.8751C96.9114 67.8751 97.5569 67.2296 97.5569 66.4346C97.5569 65.6395 96.9114 64.994 96.1163 64.994ZM96.1163 57.1931C95.0536 57.1931 94.1877 58.0511 94.1877 59.1217C94.1877 60.1922 95.0458 61.0503 96.1163 61.0503C97.1869 61.0503 98.0449 60.1844 98.0449 59.1217C98.0449 58.059 97.1869 57.1931 96.1163 57.1931ZM96.1163 49.4393C94.8096 49.4393 93.7469 50.502 93.7469 51.8088C93.7469 53.1155 94.8096 54.1782 96.1163 54.1782C97.423 54.1782 98.4857 53.1155 98.4857 51.8088C98.4857 50.502 97.423 49.4393 96.1163 49.4393ZM96.1163 41.7328C94.5813 41.7328 93.3376 42.9766 93.3376 44.5116C93.3376 46.0466 94.5813 47.2903 96.1163 47.2903C97.6513 47.2903 98.8951 46.0466 98.8951 44.5116C98.8951 42.9766 97.6513 41.7328 96.1163 41.7328ZM96.1163 34.0578C94.3845 34.0578 92.9755 35.4669 92.9755 37.1987C92.9755 38.9305 94.3845 40.3395 96.1163 40.3395C97.8481 40.3395 99.2572 38.9305 99.2572 37.1987C99.2572 35.4669 97.8481 34.0578 96.1163 34.0578ZM96.1163 26.5088C94.2507 26.5088 92.7314 28.0201 92.7314 29.8936C92.7314 31.7671 94.2507 33.2785 96.1163 33.2785C97.9819 33.2785 99.5012 31.7671 99.5012 29.8936C99.5012 28.0201 97.9819 26.5088 96.1163 26.5088ZM96.1163 19.0778C94.1799 19.0778 92.6134 20.6443 92.6134 22.5807C92.6134 24.5172 94.1799 26.0837 96.1163 26.0837C98.0528 26.0837 99.6193 24.5172 99.6193 22.5807C99.6193 20.6443 98.0528 19.0778 96.1163 19.0778ZM96.1163 11.7885C94.1877 11.7885 92.6291 13.3471 92.6291 15.2757C92.6291 17.2043 94.1877 18.7629 96.1163 18.7629C98.0449 18.7629 99.6035 17.2043 99.6035 15.2757C99.6035 13.3471 98.0449 11.7885 96.1163 11.7885ZM96.1163 11.2926C97.9505 11.2926 99.4382 9.80478 99.4382 7.97065C99.4382 6.13652 97.9505 4.64875 96.1163 4.64875C94.2822 4.64875 92.7944 6.13652 92.7944 7.97065C92.7944 9.80478 94.2822 11.2926 96.1163 11.2926ZM93.0778 0.65774C93.0778 2.33443 94.4396 3.69626 96.1163 3.69626C97.793 3.69626 99.1548 2.33443 99.1548 0.65774M103.429 77.2268C103.343 77.2268 103.264 77.2977 103.264 77.3921C103.264 77.4866 103.335 77.5574 103.429 77.5574C103.524 77.5574 103.595 77.4866 103.595 77.3921C103.595 77.2977 103.524 77.2268 103.429 77.2268ZM103.429 69.4337C103.075 69.4337 102.784 69.725 102.784 70.0792C102.784 70.4334 103.075 70.7247 103.429 70.7247C103.783 70.7247 104.075 70.4334 104.075 70.0792C104.075 69.725 103.783 69.4337 103.429 69.4337ZM103.429 61.6406C102.799 61.6406 102.296 62.1523 102.296 62.7742C102.296 63.396 102.799 63.9077 103.429 63.9077C104.059 63.9077 104.563 63.396 104.563 62.7742C104.563 62.1523 104.059 61.6406 103.429 61.6406ZM103.429 53.9105C102.563 53.9105 101.871 54.6111 101.871 55.4691C101.871 56.3272 102.571 57.0278 103.429 57.0278C104.287 57.0278 104.988 56.3272 104.988 55.4691C104.988 54.6111 104.287 53.9105 103.429 53.9105ZM103.429 46.1725C102.335 46.1725 101.446 47.062 101.446 48.1562C101.446 49.2504 102.335 50.1399 103.429 50.1399C104.523 50.1399 105.413 49.2504 105.413 48.1562C105.413 47.062 104.523 46.1725 103.429 46.1725ZM103.429 38.5054C102.13 38.5054 101.076 39.5602 101.076 40.8591C101.076 42.1579 102.13 43.2127 103.429 43.2127C104.728 43.2127 105.783 42.1579 105.783 40.8591C105.783 39.5602 104.728 38.5054 103.429 38.5054ZM103.429 30.9091C101.973 30.9091 100.792 32.0899 100.792 33.5462C100.792 35.0024 101.973 36.1832 103.429 36.1832C104.886 36.1832 106.066 35.0024 106.066 33.5462C106.066 32.0899 104.886 30.9091 103.429 30.9091ZM103.429 23.3994C101.863 23.3994 100.595 24.6668 100.595 26.2332C100.595 27.7997 101.863 29.0671 103.429 29.0671C104.996 29.0671 106.263 27.7997 106.263 26.2332C106.263 24.6668 104.996 23.3994 103.429 23.3994ZM103.429 15.9684C101.792 15.9684 100.469 17.2909 100.469 18.9282C100.469 20.5655 101.792 21.888 103.429 21.888C105.067 21.888 106.389 20.5655 106.389 18.9282C106.389 17.2909 105.067 15.9684 103.429 15.9684ZM103.429 14.5594C105.051 14.5594 106.365 13.2448 106.365 11.6232C106.365 10.0016 105.051 8.68698 103.429 8.68698C101.808 8.68698 100.493 10.0016 100.493 11.6232C100.493 13.2448 101.808 14.5594 103.429 14.5594ZM103.429 7.11262C104.972 7.11262 106.224 5.861 106.224 4.31813C106.224 2.77526 104.972 1.52364 103.429 1.52364C101.886 1.52364 100.635 2.77526 100.635 4.31813C100.635 5.861 101.886 7.11262 103.429 7.11262ZM110.734 73.409C110.553 73.409 110.412 73.5507 110.412 73.7317C110.412 73.9128 110.553 74.0545 110.734 74.0545C110.915 74.0545 111.057 73.9128 111.057 73.7317C111.057 73.5507 110.915 73.409 110.734 73.409ZM110.734 65.6631C110.309 65.6631 109.963 66.0095 109.963 66.4346C109.963 66.8596 110.309 67.206 110.734 67.206C111.159 67.206 111.506 66.8596 111.506 66.4346C111.506 66.0095 111.159 65.6631 110.734 65.6631ZM110.734 57.9488C110.089 57.9488 109.561 58.4762 109.561 59.1217C109.561 59.7672 110.089 60.2946 110.734 60.2946C111.38 60.2946 111.907 59.7672 111.907 59.1217C111.907 58.4762 111.38 57.9488 110.734 57.9488ZM110.734 50.2738C109.884 50.2738 109.199 50.9665 109.199 51.8166C109.199 52.6668 109.892 53.3595 110.734 53.3595C111.577 53.3595 112.277 52.6668 112.277 51.8166C112.277 50.9665 111.584 50.2738 110.734 50.2738ZM110.734 42.6381C109.703 42.6381 108.869 43.4725 108.869 44.5037C108.869 45.5349 109.703 46.3693 110.734 46.3693C111.765 46.3693 112.6 45.5349 112.6 44.5037C112.6 43.4725 111.765 42.6381 110.734 42.6381ZM110.734 35.0733C109.561 35.0733 108.609 36.0258 108.609 37.1987C108.609 38.3716 109.561 39.3241 110.734 39.3241C111.907 39.3241 112.86 38.3716 112.86 37.1987C112.86 36.0258 111.907 35.0733 110.734 35.0733ZM110.734 27.6029C109.467 27.6029 108.444 28.6263 108.444 29.8936C108.444 31.161 109.467 32.1843 110.734 32.1843C112.002 32.1843 113.025 31.161 113.025 29.8936C113.025 28.6263 112.002 27.6029 110.734 27.6029ZM110.734 20.1956C109.412 20.1956 108.341 21.2661 108.341 22.5886C108.341 23.9111 109.412 24.9816 110.734 24.9816C112.057 24.9816 113.127 23.9111 113.127 22.5886C113.127 21.2661 112.057 20.1956 110.734 20.1956ZM110.734 17.6451C112.041 17.6451 113.104 16.5824 113.104 15.2757C113.104 13.969 112.041 12.9063 110.734 12.9063C109.428 12.9063 108.365 13.969 108.365 15.2757C108.365 16.5824 109.428 17.6451 110.734 17.6451ZM110.734 10.2141C111.978 10.2141 112.986 9.20652 112.986 7.96278C112.986 6.71903 111.978 5.71144 110.734 5.71144C109.491 5.71144 108.483 6.71903 108.483 7.96278C108.483 9.20652 109.491 10.2141 110.734 10.2141ZM108.688 0.65774C108.688 1.79128 109.601 2.70441 110.734 2.70441C111.868 2.70441 112.781 1.79128 112.781 0.65774M118.039 62.4121C117.835 62.4121 117.677 62.5774 117.677 62.7742C117.677 62.971 117.843 63.1363 118.039 63.1363C118.236 63.1363 118.401 62.971 118.401 62.7742C118.401 62.5774 118.236 62.4121 118.039 62.4121ZM118.039 54.7213C117.622 54.7213 117.291 55.0598 117.291 55.4691C117.291 55.8785 117.63 56.217 118.039 56.217C118.449 56.217 118.787 55.8785 118.787 55.4691C118.787 55.0598 118.449 54.7213 118.039 54.7213ZM118.039 47.0857C117.449 47.0857 116.969 47.5658 116.969 48.1562C116.969 48.7466 117.449 49.2268 118.039 49.2268C118.63 49.2268 119.11 48.7466 119.11 48.1562C119.11 47.5658 118.63 47.0857 118.039 47.0857ZM118.039 39.4972C117.291 39.4972 116.685 40.1034 116.685 40.8512C116.685 41.599 117.291 42.2051 118.039 42.2051C118.787 42.2051 119.401 41.599 119.401 40.8512C119.401 40.1034 118.795 39.4972 118.039 39.4972ZM118.039 31.9482C117.158 31.9482 116.441 32.6645 116.441 33.5462C116.441 34.4278 117.158 35.1441 118.039 35.1441C118.921 35.1441 119.637 34.4278 119.637 33.5462C119.637 32.6645 118.921 31.9482 118.039 31.9482ZM118.039 24.4936C117.079 24.4936 116.3 25.2729 116.3 26.2332C116.3 27.1936 117.079 27.9729 118.039 27.9729C119 27.9729 119.779 27.1936 119.779 26.2332C119.779 25.2729 119 24.4936 118.039 24.4936ZM118.039 17.1098C117.032 17.1098 116.213 17.9285 116.213 18.9361C116.213 19.9437 117.032 20.7623 118.039 20.7623C119.047 20.7623 119.866 19.9437 119.866 18.9361C119.866 17.9285 119.047 17.1098 118.039 17.1098ZM118.039 13.4258C119.039 13.4258 119.842 12.6229 119.842 11.6232C119.842 10.6234 119.031 9.82052 118.039 9.82052C117.047 9.82052 116.237 10.6313 116.237 11.6232C116.237 12.615 117.047 13.4258 118.039 13.4258ZM118.039 6.01844C118.976 6.01844 119.74 5.25488 119.74 4.31813C119.74 3.38139 118.976 2.61782 118.039 2.61782C117.103 2.61782 116.339 3.38139 116.339 4.31813C116.339 5.25488 117.103 6.01844 118.039 6.01844ZM125.352 58.8383C125.195 58.8383 125.069 58.9642 125.069 59.1217C125.069 59.2791 125.195 59.405 125.352 59.405C125.51 59.405 125.636 59.2791 125.636 59.1217C125.636 58.9642 125.51 58.8383 125.352 58.8383ZM125.352 51.2026C125.014 51.2026 124.746 51.4781 124.746 51.8088C124.746 52.1394 125.022 52.4149 125.352 52.4149C125.683 52.4149 125.958 52.1394 125.958 51.8088C125.958 51.4781 125.683 51.2026 125.352 51.2026ZM125.352 43.6536C124.88 43.6536 124.502 44.0314 124.502 44.5037C124.502 44.976 124.88 45.3539 125.352 45.3539C125.825 45.3539 126.202 44.976 126.202 44.5037C126.202 44.0314 125.825 43.6536 125.352 43.6536ZM125.352 36.1439C124.77 36.1439 124.297 36.6162 124.297 37.1987C124.297 37.7812 124.77 38.2535 125.352 38.2535C125.935 38.2535 126.407 37.7812 126.407 37.1987C126.407 36.6162 125.935 36.1439 125.352 36.1439ZM125.352 28.7129C124.699 28.7129 124.179 29.2403 124.179 29.8858C124.179 30.5312 124.707 31.0587 125.352 31.0587C125.998 31.0587 126.525 30.5312 126.525 29.8858C126.525 29.2403 125.998 28.7129 125.352 28.7129ZM125.352 21.3291C124.659 21.3291 124.101 21.8959 124.101 22.5886C124.101 23.2813 124.659 23.8481 125.352 23.8481C126.045 23.8481 126.612 23.2892 126.612 22.5886C126.612 21.888 126.053 21.3291 125.352 21.3291ZM125.352 16.5116C126.037 16.5116 126.588 15.9605 126.588 15.2757C126.588 14.5908 126.037 14.0398 125.352 14.0398C124.667 14.0398 124.116 14.5908 124.116 15.2757C124.116 15.9605 124.667 16.5116 125.352 16.5116ZM125.352 9.11993C125.99 9.11993 126.509 8.60039 126.509 7.96278C126.509 7.32516 125.99 6.80562 125.352 6.80562C124.715 6.80562 124.195 7.32516 124.195 7.96278C124.195 8.60039 124.715 9.11993 125.352 9.11993ZM124.36 0.65774C124.36 1.20877 124.801 1.64959 125.352 1.64959C125.903 1.64959 126.344 1.20877 126.344 0.65774M132.657 48.0618C132.602 48.0618 132.555 48.109 132.555 48.1641C132.555 48.2192 132.602 48.2664 132.657 48.2664C132.712 48.2664 132.76 48.2192 132.76 48.1641C132.76 48.109 132.712 48.0618 132.657 48.0618ZM132.657 40.5284C132.476 40.5284 132.335 40.6701 132.335 40.8512C132.335 41.0322 132.476 41.1739 132.657 41.1739C132.838 41.1739 132.98 41.0322 132.98 40.8512C132.98 40.6701 132.838 40.5284 132.657 40.5284ZM132.657 33.0424C132.382 33.0424 132.153 33.2706 132.153 33.5462C132.153 33.8217 132.382 34.0499 132.657 34.0499C132.933 34.0499 133.161 33.8217 133.161 33.5462C133.161 33.2706 132.933 33.0424 132.657 33.0424ZM132.657 25.6114C132.311 25.6114 132.028 25.8948 132.028 26.2411C132.028 26.5875 132.311 26.8709 132.657 26.8709C133.004 26.8709 133.287 26.5875 133.287 26.2411C133.287 25.8948 133.004 25.6114 132.657 25.6114ZM132.657 19.6209C133.035 19.6209 133.35 19.3139 133.35 18.9282C133.35 18.5425 133.043 18.2355 132.657 18.2355C132.272 18.2355 131.965 18.5425 131.965 18.9282C131.965 19.3139 132.272 19.6209 132.657 19.6209ZM132.657 12.2923C133.027 12.2923 133.326 11.9931 133.326 11.6232C133.326 11.2532 133.027 10.9541 132.657 10.9541C132.287 10.9541 131.988 11.2532 131.988 11.6232C131.988 11.9931 132.287 12.2923 132.657 12.2923ZM132.657 4.90064C132.98 4.90064 133.248 4.633 133.248 4.31026C133.248 3.98751 132.988 3.71987 132.657 3.71987C132.327 3.71987 132.067 3.97964 132.067 4.31026C132.067 4.64087 132.327 4.90064 132.657 4.90064Z" fill="url(#paint0_radial_34_2854)" fill-opacity="0.31"/>
</g>
<defs>
<radialGradient id="paint0_radial_34_2854" cx="0" cy="0" r="1" gradientUnits="userSpaceOnUse" gradientTransform="translate(67.6127 1.08282) scale(99.3501 99.3501)">
<stop offset="0.296666" stop-color="#D44228"/>
<stop offset="0.746666" stop-color="#5B4763"/>
</radialGradient>
<clipPath id="clip0_34_2854">
<rect width="132.506" height="88.3374" fill="white" transform="translate(0.835938 0.295654)"/>
</clipPath>
</defs>
</svg>
