<svg width="320" height="80" viewBox="0 0 320 80" fill="none" xmlns="http://www.w3.org/2000/svg">
<path d="M48.6354 34.8084V44.7169C48.6354 55.9329 44.3143 62.8938 31.4277 62.8938H25.441C19.9533 62.8938 16.4611 61.1782 14.3811 58.1474V79.0225H0.419922V16.8809H14.3888V21.6273C16.4687 18.5965 19.9609 16.8809 25.4487 16.8809H31.4353C44.322 16.8809 48.6431 23.9249 48.6431 34.8084H48.6354ZM34.6743 33.5008C34.6743 30.387 33.5921 29.6538 31.0976 29.6538H17.9654C15.471 29.6538 14.3888 30.387 14.3888 33.5008V46.2738C14.3888 49.3877 15.5554 50.1208 17.9654 50.1208H31.0976C33.5076 50.1208 34.6743 49.3877 34.6743 46.2738V33.5008Z" fill="white"/>
<path d="M52.8804 62.8863V50.1133H77.3182C79.1449 50.1133 80.5571 49.7052 80.5571 47.9819C80.5571 46.2587 79.5594 45.9337 77.395 45.6919L65.675 44.3012C55.4516 43.0768 51.875 39.2222 51.875 30.387C51.875 21.0529 57.4472 16.8809 68.5839 16.8809H92.6072V29.6538H68.9139C67.2484 29.6538 65.7517 29.8957 65.7517 31.8608C65.7517 33.5764 66.7495 33.9921 68.415 34.1508L79.805 35.5415C91.1949 36.9322 94.6872 41.1117 94.6872 49.622C94.6872 59.198 89.1994 62.8863 77.2261 62.8863H52.8651H52.8804Z" fill="white"/>
<path d="M97.8799 12.2098V0.751953H111.849V12.2098H97.8799ZM97.8799 62.8861V16.8807H111.849V62.8861H97.8799Z" fill="white"/>
<path d="M165.589 34.8084V44.7169C165.589 55.9329 161.268 62.8938 148.382 62.8938H142.395C136.907 62.8938 133.415 61.1782 131.335 58.1474V79.0225H117.366V16.8809H131.335V21.6273C133.415 18.5965 136.907 16.8809 142.395 16.8809H148.382C161.268 16.8809 165.589 23.9249 165.589 34.8084ZM151.621 33.5008C151.621 30.387 150.538 29.6538 148.044 29.6538H134.912C132.417 29.6538 131.335 30.387 131.335 33.5008V46.2738C131.335 49.3877 132.502 50.1208 134.912 50.1208H148.044C150.454 50.1208 151.621 49.3877 151.621 46.2738V33.5008Z" fill="white"/>
<path d="M216.361 35.05V62.8861H202.392V33.5007C202.392 30.3868 201.226 29.6537 198.816 29.6537H187.341C184.931 29.6537 183.765 30.3868 183.765 33.5007V62.8861H169.796V0.751953H183.765V21.7102C185.845 18.5963 189.337 16.8807 194.825 16.8807H199.146C212.032 16.8807 216.354 23.8416 216.354 35.0576L216.361 35.05Z" fill="white"/>
<path d="M220.229 44.7091V34.8006C220.229 23.9095 224.551 16.873 237.437 16.873H251.237C264.124 16.873 268.445 23.9171 268.445 34.8006V44.7091C268.445 55.9251 264.124 62.886 251.237 62.886H237.437C224.551 62.886 220.229 55.9251 220.229 44.7091ZM250.907 50.113C253.317 50.113 254.484 49.3799 254.484 46.266V33.493C254.484 30.3791 253.402 29.646 250.907 29.646H237.775C235.281 29.646 234.198 30.3791 234.198 33.493V46.266C234.198 49.3799 235.365 50.113 237.775 50.113H250.907Z" fill="white"/>
<path d="M272.912 19.1257V63.0754H286.85V33.7504C286.85 33.433 286.866 33.1458 286.889 32.8812L272.912 19.1182V19.1257Z" fill="white"/>
<path d="M302.193 17.1758H297.88C293.182 17.1758 289.959 18.438 287.825 20.7583V30.5912C288.416 30.0848 289.276 29.9185 290.412 29.9185H301.855C304.258 29.9185 305.424 30.6516 305.424 33.758V63.0829H319.363V35.3149C319.363 24.1216 315.049 17.1833 302.193 17.1833V17.1758Z" fill="white"/>
</svg>
