<svg width="136" height="31" viewBox="0 0 136 31" fill="none" xmlns="http://www.w3.org/2000/svg">
<path d="M43.2427 24.3122C40.8964 24.3122 39.0357 23.6477 37.6591 22.3189C36.284 20.9901 35.5965 19.0693 35.5965 16.5581V12.0474C35.5965 9.53618 36.284 7.61538 37.6591 6.28654C39.0342 4.9577 40.8949 4.29328 43.2427 4.29328C45.5905 4.29328 47.3356 4.93612 48.592 6.21871C49.8468 7.50284 50.4758 9.25253 50.4758 11.4709V11.6358H47.5329V11.3892C47.5329 10.0881 47.1799 9.02438 46.4738 8.19963C45.7678 7.37489 44.6902 6.96175 43.2427 6.96175C41.7952 6.96175 40.6297 7.40726 39.805 8.29521C38.9803 9.1847 38.5671 10.418 38.5671 11.9934V16.6135C38.5671 18.1721 38.9803 19.4007 39.805 20.2995C40.6297 21.1982 41.7751 21.6468 43.2427 21.6468C44.7103 21.6468 45.7678 21.2306 46.4738 20.395C47.1799 19.561 47.5329 18.502 47.5329 17.2194V16.7523H50.4758V17.1377C50.4758 19.356 49.8468 21.1072 48.592 22.3898C47.3356 23.674 45.5535 24.3153 43.2427 24.3153V24.3122Z" fill="#231F20"/>
<path d="M59.7622 24.3122C58.4056 24.3122 57.2001 24.0331 56.1457 23.4736C55.0912 22.914 54.2619 22.1123 53.6576 21.0672C53.0533 20.022 52.7496 18.7841 52.7496 17.355V16.9419C52.7496 15.5113 53.0517 14.2796 53.6576 13.2437C54.2619 12.2077 55.0912 11.4061 56.1457 10.8373C57.2001 10.27 58.4056 9.98478 59.7622 9.98478C61.1188 9.98478 62.3289 10.27 63.3926 10.8373C64.4563 11.4061 65.2903 12.2077 65.8946 13.2437C66.4989 14.2796 66.8026 15.5129 66.8026 16.9419V17.355C66.8026 18.7856 66.5004 20.022 65.8946 21.0672C65.2903 22.1123 64.4548 22.914 63.3926 23.4736C62.3289 24.0331 61.1188 24.3122 59.7622 24.3122ZM59.7622 21.7824C61.0093 21.7824 62.0222 21.3832 62.8007 20.5862C63.5792 19.7892 63.9692 18.6839 63.9692 17.2718V17.0251C63.9692 15.6131 63.5838 14.5093 62.8145 13.7108C62.0453 12.9138 61.0263 12.5145 59.7622 12.5145C58.4981 12.5145 57.53 12.9138 56.7515 13.7108C55.9715 14.5078 55.583 15.6131 55.583 17.0251V17.2718C55.583 18.6839 55.973 19.7876 56.7515 20.5862C57.53 21.3832 58.5351 21.7824 59.7622 21.7824Z" fill="#231F20"/>
<path d="M69.7269 23.9283V10.3702H72.5049V12.405H72.9442C73.2001 11.8547 73.6595 11.3414 74.3193 10.865C74.9791 10.3887 75.9595 10.1497 77.2622 10.1497C78.2889 10.1497 79.2015 10.3794 79.9985 10.8373C80.7954 11.2951 81.4244 11.9426 81.8823 12.7766C82.3401 13.6106 82.5698 14.6141 82.5698 15.7873V23.9283H79.7379V16.0077C79.7379 14.8346 79.445 13.9682 78.8577 13.4086C78.2704 12.849 77.4641 12.57 76.4374 12.57C75.2643 12.57 74.3239 12.9554 73.6194 13.7246C72.9134 14.4954 72.5604 15.6131 72.5604 17.0791V23.9268H69.7285L69.7269 23.9283Z" fill="#231F20"/>
<path d="M91.6836 24.3122C90.5644 24.3122 89.5285 24.0378 88.5758 23.4874C87.6215 22.9371 86.8569 22.1447 86.2788 21.1088C85.7007 20.0728 85.4125 18.8226 85.4125 17.355V16.9419C85.4125 15.4944 85.6961 14.2472 86.265 13.202C86.8323 12.1569 87.5938 11.3599 88.548 10.8095C89.5007 10.2592 90.5459 9.98478 91.6836 9.98478C92.5638 9.98478 93.3022 10.0942 93.8973 10.3147C94.4923 10.5351 94.9841 10.8141 95.3695 11.1533C95.7549 11.4924 96.0478 11.8455 96.2497 12.2124H96.6906V4.67714H99.5225V23.9283H96.7446V22.0029H96.3052C95.9568 22.5902 95.4296 23.1221 94.7236 23.5984C94.0175 24.0748 93.0047 24.3137 91.6851 24.3137L91.6836 24.3122ZM92.4806 21.8379C93.7092 21.8379 94.722 21.4433 95.519 20.6556C96.316 19.8678 96.7153 18.7394 96.7153 17.2733V17.0267C96.7153 15.5791 96.3206 14.46 95.5329 13.6707C94.7451 12.8829 93.7277 12.4883 92.4806 12.4883C91.2334 12.4883 90.2669 12.8829 89.4699 13.6707C88.6729 14.46 88.2736 15.5776 88.2736 17.0267V17.2733C88.2736 18.7409 88.6729 19.8678 89.4699 20.6556C90.2669 21.4448 91.272 21.8379 92.4806 21.8379Z" fill="#231F20"/>
<path d="M108.319 24.175C107.292 24.175 106.375 23.9453 105.569 23.4874C104.762 23.0296 104.129 22.379 103.671 21.5343C103.211 20.691 102.983 19.6828 102.983 18.5097V10.3686H105.817V18.317C105.817 19.4901 106.11 20.3565 106.697 20.9161C107.283 21.4757 108.1 21.7547 109.145 21.7547C110.3 21.7547 111.231 21.3647 111.937 20.5862C112.643 19.8077 112.996 18.6839 112.996 17.2178V10.3702H115.828V23.9283H113.05V21.8934H112.609C112.351 22.4438 111.894 22.9618 111.234 23.4473C110.574 23.9329 109.601 24.1765 108.319 24.1765V24.175Z" fill="#231F20"/>
<path d="M120.864 8.52645C120.314 8.52645 119.851 8.34762 119.475 7.98998C119.099 7.63233 118.911 7.16986 118.911 6.60102C118.911 6.03218 119.099 5.56971 119.475 5.21206C119.851 4.85442 120.314 4.6756 120.864 4.6756C121.414 4.6756 121.9 4.85442 122.267 5.21206C122.634 5.56971 122.817 6.03218 122.817 6.60102C122.817 7.16986 122.634 7.63233 122.267 7.98998C121.9 8.34762 121.433 8.52645 120.864 8.52645ZM119.435 23.9283V10.3702H122.267V23.9283H119.435Z" fill="#231F20"/>
<path d="M131.005 23.9283C130.18 23.9283 129.523 23.6801 129.037 23.1853C128.552 22.6904 128.308 22.0306 128.308 21.2059V12.7627H124.568V10.3702H128.308V5.88727H131.14V10.3702H135.182V12.7627H131.14V20.7111C131.14 21.2614 131.396 21.5358 131.911 21.5358H134.743V23.9283H131.003H131.005Z" fill="#231F20"/>
<path d="M24.1133 9.04288C24.1133 7.37797 22.7644 6.0291 21.0995 6.0291H19.4593C19.0939 6.0291 18.7455 5.88419 18.4866 5.62675C18.2291 5.3693 18.0842 5.01937 18.0842 4.65401V3.01378C18.0842 1.34888 16.7353 0 15.0704 0H9.04133C7.37643 0 6.02756 1.34888 6.02756 3.01378V4.65247C6.02756 5.01782 5.88265 5.36622 5.62521 5.6252C5.36776 5.88265 5.01782 6.02756 4.65247 6.02756H3.01378C1.34888 6.02756 0 7.37643 0 9.04133V21.0995C0 22.7644 1.34888 24.1133 3.01378 24.1133H4.65247C5.01782 24.1133 5.36622 24.2582 5.62521 24.5157C5.88265 24.7731 6.02756 25.123 6.02756 25.4884V27.1271C6.02756 28.792 7.37643 30.1409 9.04133 30.1409H15.0704C16.7353 30.1409 18.0842 28.792 18.0842 27.1271V25.4884C18.0842 25.123 18.2291 24.7746 18.4866 24.5157C18.744 24.2582 19.0939 24.1133 19.4593 24.1133H21.0995C22.7644 24.1133 24.1133 22.7644 24.1133 21.0995C24.1133 19.4346 22.7644 18.0858 21.0995 18.0858H21.098C19.4331 18.0858 18.0842 19.4346 18.0842 21.0995V22.7382C18.0842 23.1036 17.9393 23.452 17.6819 23.711C17.4244 23.9684 17.0745 24.1133 16.7091 24.1133H7.4011C7.03574 24.1133 6.68735 23.9684 6.42836 23.711C6.17092 23.4535 6.02601 23.1036 6.02601 22.7382V7.39956C6.02601 7.0342 6.17092 6.68581 6.42836 6.42682C6.68581 6.16938 7.03574 6.02447 7.4011 6.02447H16.7076C17.0729 6.02447 17.4213 6.16938 17.6803 6.42682C17.9378 6.68581 18.0827 7.03575 18.0827 7.39956V9.03825C18.0827 10.7031 19.4315 12.052 21.0964 12.052H21.098C22.7629 12.052 24.1118 10.7031 24.1118 9.03825L24.1133 9.04288Z" fill="#231F20"/>
</svg>
