<svg width="141" height="44" viewBox="0 0 141 44" fill="none" xmlns="http://www.w3.org/2000/svg">
<g clip-path="url(#clip0_120_73)">
<path d="M84.265 36.701V37.2624C84.1203 39.7462 82.9057 40.7984 80.5296 40.7984H77.5197C74.7093 40.7984 73.7666 39.2572 73.7666 36.7734V34.5791C73.7666 32.1677 74.7093 30.6089 77.5197 30.6089H80.5296C82.9763 30.6089 84.1185 31.7511 84.265 34.1078V34.6691H81.2463L81.2181 34.1078C81.1633 33.5817 81.0009 33.4369 80.4572 33.4369H77.5921C77.0484 33.4369 76.8118 33.5994 76.8118 34.2896V37.1177C76.8118 37.8061 77.066 37.9703 77.5921 37.9703H80.4572C81.038 37.9703 81.1828 37.7885 81.2181 37.2624V36.701H84.2633H84.265Z" fill="#E0E0E0"/>
<path d="M84.9873 36.7734V34.5791C84.9873 32.1677 85.93 30.6089 88.7404 30.6089H91.7503C94.5607 30.6089 95.5034 32.1677 95.5034 34.5791V36.7734C95.5034 39.2572 94.5607 40.7984 91.7503 40.7984H88.7404C85.93 40.7984 84.9873 39.2572 84.9873 36.7734ZM91.6779 37.9703C92.204 37.9703 92.4582 37.8079 92.4582 37.1177V34.2896C92.4582 33.6011 92.2216 33.4369 91.6779 33.4369H88.8128C88.2691 33.4369 88.0325 33.5994 88.0325 34.2896V37.1177C88.0325 37.8061 88.2867 37.9703 88.8128 37.9703H91.6779Z" fill="#E0E0E0"/>
<path d="M114.569 27.0376H117.614V40.7983H114.569V39.7462C114.115 40.417 113.354 40.7983 112.157 40.7983H110.853C108.042 40.7983 107.1 39.2396 107.1 36.8281V34.6338C107.1 32.15 108.042 30.6089 110.853 30.6089H112.157C113.354 30.6089 114.115 30.9902 114.569 31.661V27.0376ZM114.569 37.1176V34.2896C114.569 33.6011 114.315 33.4369 113.788 33.4369H110.923C110.397 33.4369 110.143 33.5993 110.143 34.2896V37.1176C110.143 37.8061 110.38 37.9703 110.923 37.9703H113.788C114.332 37.9703 114.569 37.8079 114.569 37.1176Z" fill="#E0E0E0"/>
<path d="M125.441 30.6089H128.486V40.7984H125.441V39.7286C124.988 40.4171 124.227 40.7984 123.03 40.7984H122.087C119.277 40.7984 118.334 39.2572 118.334 36.7734V30.6089H121.379V37.1177C121.379 37.8061 121.633 37.9703 122.159 37.9703H124.661C125.187 37.9703 125.441 37.8079 125.441 37.1177V30.6089Z" fill="#E0E0E0"/>
<path d="M129.209 29.5761V27.0376H132.254V29.5761H129.209ZM129.209 40.7983V30.6089H132.254V40.7983H129.209Z" fill="#E0E0E0"/>
<path d="M133.936 36.9552V33.3292H132.976V30.6088H133.519C134.607 30.5718 134.889 29.8356 134.889 27.9979H136.983V30.6088H140.754V33.3292H136.983V37.2994C136.983 37.8608 137.2 38.0603 137.963 38.0603H140.755V40.7983H137.963C134.681 40.7983 133.938 39.4938 133.938 36.9552H133.936Z" fill="#E0E0E0"/>
<path d="M96.2256 31.0414V40.7984H99.2708V34.2896C99.2708 34.219 99.2743 34.1554 99.2796 34.0972L96.2256 31.0431V31.0414Z" fill="#E0E0E0"/>
<path d="M102.625 30.6089H101.682C100.657 30.6089 99.9504 30.8896 99.4844 31.4033V33.587C99.6132 33.474 99.8004 33.4369 100.051 33.4369H102.553C103.079 33.4369 103.333 33.5994 103.333 34.2896V40.7984H106.378V34.6338C106.378 32.15 105.435 30.6089 102.625 30.6089Z" fill="#E0E0E0"/>
</g>
<path d="M10.3595 34.5449V36.6235C10.3595 38.9763 9.45305 40.4365 6.74976 40.4365H5.49391C4.34272 40.4365 3.61014 40.0766 3.17381 39.4409V43.8199H0.245117V30.7842H3.17543V31.7799C3.61175 31.1441 4.34433 30.7842 5.49552 30.7842H6.75137C9.45466 30.7842 10.3611 32.2618 10.3611 34.5449H10.3595ZM7.43081 34.2706C7.43081 33.6174 7.20379 33.4636 6.68052 33.4636H3.92571C3.40244 33.4636 3.17543 33.6174 3.17543 34.2706V36.9501C3.17543 37.6033 3.42015 37.7571 3.92571 37.7571H6.68052C7.18608 37.7571 7.43081 37.6033 7.43081 36.9501V34.2706Z" fill="#E0E0E0"/>
<path d="M11.248 40.435V37.7555H16.3745C16.7576 37.7555 17.0539 37.6699 17.0539 37.3084C17.0539 36.9469 16.8446 36.8787 16.3906 36.828L13.932 36.5363C11.7874 36.2794 11.0371 35.4708 11.0371 33.6174C11.0371 31.6594 12.206 30.7842 14.5422 30.7842H19.5817V33.4636H14.6114C14.2621 33.4636 13.9481 33.5144 13.9481 33.9266C13.9481 34.2865 14.1574 34.3737 14.5068 34.407L16.8961 34.6987C19.2854 34.9904 20.018 35.8672 20.018 37.6524C20.018 39.6612 18.8668 40.435 16.3551 40.435H11.2448H11.248Z" fill="#E0E0E0"/>
<path d="M20.6875 29.8045V27.4009H23.6178V29.8045H20.6875ZM20.6875 40.435V30.7843H23.6178V40.435H20.6875Z" fill="#E0E0E0"/>
<path d="M34.8953 34.5449V36.6235C34.8953 38.9763 33.9888 40.4365 31.2855 40.4365H30.0297C28.8785 40.4365 28.1459 40.0766 27.7096 39.4409V43.8199H24.7793V30.7842H27.7096V31.7799C28.1459 31.1441 28.8785 30.7842 30.0297 30.7842H31.2855C33.9888 30.7842 34.8953 32.2618 34.8953 34.5449ZM31.965 34.2706C31.965 33.6174 31.738 33.4636 31.2147 33.4636H28.4599C27.9366 33.4636 27.7096 33.6174 27.7096 34.2706V36.9501C27.7096 37.6033 27.9543 37.7571 28.4599 37.7571H31.2147C31.7203 37.7571 31.965 37.6033 31.965 36.9501V34.2706Z" fill="#E0E0E0"/>
<path d="M45.5446 34.5958V40.435H42.6143V34.2707C42.6143 33.6175 42.3696 33.4637 41.864 33.4637H39.457C38.9514 33.4637 38.7067 33.6175 38.7067 34.2707V40.435H35.7764V27.4009H38.7067V31.7974C39.143 31.1442 39.8756 30.7843 41.0268 30.7843H41.9332C44.6365 30.7843 45.543 32.2445 45.543 34.5973L45.5446 34.5958Z" fill="#E0E0E0"/>
<path d="M46.3545 36.6221V34.5436C46.3545 32.2589 47.261 30.7828 49.9642 30.7828H52.8591C55.5624 30.7828 56.4689 32.2605 56.4689 34.5436V36.6221C56.4689 38.975 55.5624 40.4352 52.8591 40.4352H49.9642C47.261 40.4352 46.3545 38.975 46.3545 36.6221ZM52.7899 37.7557C53.2955 37.7557 53.5402 37.602 53.5402 36.9487V34.2693C53.5402 33.6161 53.3132 33.4623 52.7899 33.4623H50.0351C49.5118 33.4623 49.2848 33.6161 49.2848 34.2693V36.9487C49.2848 37.602 49.5295 37.7557 50.0351 37.7557H52.7899Z" fill="#E0E0E0"/>
<path d="M57.4092 31.2554V40.4749H60.333V34.3233C60.333 34.2567 60.3363 34.1964 60.3411 34.1409L57.4092 31.2538V31.2554Z" fill="#E0E0E0"/>
<path d="M63.5541 30.8462H62.6492C61.6639 30.8462 60.9876 31.111 60.54 31.5977V33.6604C60.664 33.5542 60.8443 33.5193 61.0826 33.5193H63.4832C63.9872 33.5193 64.2319 33.6731 64.2319 34.3247V40.4764H67.1558V34.6513C67.1558 32.3032 66.2509 30.8478 63.5541 30.8478V30.8462Z" fill="#E0E0E0"/>
<path d="M70.4063 0.255981C72.1356 3.74215 72.143 7.1347 70.4265 10.5676C68.6311 8.13337 68.4787 3.18591 70.4063 0.255981Z" fill="#E0E0E0"/>
<path d="M80.7255 6.28636C79.4331 9.08961 75.1538 11.5734 71.877 11.4578C73.1198 8.69859 77.1622 6.19273 80.7255 6.28636Z" fill="#E0E0E0"/>
<path d="M70.3639 24.2516C68.5795 21.7549 68.5905 16.3558 70.3528 14.0372C72.0913 16.6275 72.2125 21.2574 70.3639 24.2516Z" fill="#E0E0E0"/>
<path d="M59.8994 18.2485C62.051 14.9936 64.9974 13.3047 68.814 13.0587C68.2743 15.482 63.0588 18.5441 59.8994 18.2485Z" fill="#E0E0E0"/>
<path d="M68.876 11.4615C65.5147 11.5496 61.1932 9.0346 60.0146 6.32681C62.9629 6.09182 67.2495 8.2654 68.876 11.4615Z" fill="#E0E0E0"/>
<path d="M71.8291 13.0587C75.7008 13.301 78.6472 14.9955 80.7621 18.1971C78.2654 18.8745 72.9893 15.851 71.8291 13.0587Z" fill="#E0E0E0"/>
<path d="M82.2356 16.1428C80.8257 13.7966 80.9395 10.461 82.2466 8.44531C83.5335 11.0173 83.539 13.5507 82.2356 16.1428Z" fill="#E0E0E0"/>
<path d="M61.1532 3.90736C61.9095 1.94857 65.5481 -0.157089 67.6537 0.145817C66.6826 2.20374 63.6334 4.0377 61.1514 3.90736H61.1532Z" fill="#E0E0E0"/>
<path d="M58.4948 8.47473C59.7542 10.4188 59.9084 13.7618 58.5242 16.0602C57.2905 14.3236 57.0684 10.7658 58.4948 8.47473Z" fill="#E0E0E0"/>
<path d="M79.5753 20.6331C78.6776 22.691 75.0482 24.7765 73.0527 24.402C74.0239 22.4322 76.8638 20.5854 79.5753 20.6331Z" fill="#E0E0E0"/>
<path d="M61.1328 20.6388C63.7305 20.5874 66.6016 22.3167 67.6609 24.4022C65.7608 24.8318 62.0838 22.7279 61.1328 20.6388Z" fill="#E0E0E0"/>
<path d="M73.0527 0.14757C75.118 -0.177365 78.7694 1.9338 79.5533 3.90727C77.3907 4.16429 73.6751 2.01457 73.0527 0.14757Z" fill="#E0E0E0"/>
<path d="M60.4824 9.32471C62.2081 10.9622 62.5569 11.4065 65.4244 12.2767C62.7294 13.0918 62.4339 13.391 60.4953 15.2084C61.1617 13.2405 61.169 11.3349 60.4843 9.32471H60.4824Z" fill="#E0E0E0"/>
<path d="M75.3613 12.2821C77.3054 11.8489 78.9319 10.9016 80.2592 9.39075C79.6406 11.3238 79.6442 13.2386 80.2629 15.1698C78.9301 13.6663 77.3109 12.708 75.3613 12.2803V12.2821Z" fill="#E0E0E0"/>
<path d="M68.2114 16.4164C67.512 18.3605 67.5175 20.2972 68.2188 22.256C66.7612 20.7158 64.9658 19.7447 62.8105 19.3335C64.9621 18.9222 66.752 17.964 68.2114 16.4164Z" fill="#E0E0E0"/>
<path d="M68.0772 8.27457C66.0248 6.33047 65.4282 5.99635 62.7002 5.2602C64.8628 4.86183 66.5994 3.89804 68.0111 2.34863C67.3411 4.30008 67.3264 6.24051 68.0772 8.27457Z" fill="#E0E0E0"/>
<path d="M72.6514 2.2644C74.0594 3.80831 75.8016 4.76292 77.8815 5.18331C75.7979 5.59637 74.0649 6.55465 72.6569 8.10222C73.3196 6.15445 73.338 4.21769 72.6514 2.26624V2.2644Z" fill="#E0E0E0"/>
<path d="M72.7703 16.5468C74.1086 18.008 75.9021 18.9773 78.0647 19.3849C75.9205 19.7961 74.1269 20.7544 72.7666 22.2414C72.8951 21.329 73.1411 20.3634 73.1393 19.3977C73.1393 18.4211 72.8951 17.4426 72.7703 16.5468Z" fill="#E0E0E0"/>
<defs>
<clipPath id="clip0_120_73">
<rect width="66.9855" height="13.7607" fill="white" transform="translate(73.7686 27.0376)"/>
</clipPath>
</defs>
</svg>
