<svg width="76" height="76" viewBox="0 0 76 76" fill="none" xmlns="http://www.w3.org/2000/svg">
<rect x="2.82452" y="2.82452" width="69.6715" height="69.6715" rx="6.59055" stroke="#4E3677" stroke-width="5.64904"/>
<path d="M60.5904 62.5221C60.5904 63.4141 59.8002 64.1381 58.8266 64.1381C57.8529 64.1381 57.0627 63.4141 57.0627 62.5221V20.5074C57.0627 19.6154 57.8529 18.8914 58.8266 18.8914C59.8002 18.8914 60.5904 19.6154 60.5904 20.5074V62.5221Z" fill="#4E3677"/>
<path d="M46.4796 62.5221C46.4796 63.4141 45.6894 64.1381 44.7157 64.1381C43.7421 64.1381 42.9519 63.4141 42.9519 62.5221V36.6669C42.9519 35.7749 43.7421 35.0509 44.7157 35.0509C45.6894 35.0509 46.4796 35.7749 46.4796 36.6669V62.5221Z" fill="#4E3677"/>
<path d="M32.3688 62.5221C32.3688 63.4141 31.5786 64.1381 30.6049 64.1381C29.6313 64.1381 28.8411 63.4141 28.8411 62.5221V20.5074C28.8411 19.6154 29.6313 18.8914 30.6049 18.8914C31.5786 18.8914 32.3688 19.6154 32.3688 20.5074V62.5221Z" fill="#4E3677"/>
<path d="M18.2579 62.5221C18.2579 63.4141 17.4677 64.1381 16.4941 64.1381C15.5204 64.1381 14.7302 63.4141 14.7302 62.5221V36.6669C14.7302 35.7749 15.5204 35.0509 16.4941 35.0509C17.4677 35.0509 18.2579 35.7749 18.2579 36.6669V62.5221Z" fill="#4E3677"/>
</svg>
