<svg width="21" height="21" viewBox="0 0 21 21" fill="none" xmlns="http://www.w3.org/2000/svg">
<path d="M0.945312 17.6846C0.945312 15.3397 0.945312 12.9944 0.945312 10.6495C0.959694 10.5877 0.97835 10.5263 0.98729 10.4637C1.22283 8.85259 2.62636 7.58276 4.25455 7.54118C5.283 7.51513 6.31262 7.53185 7.34185 7.52952C7.41647 7.52952 7.49071 7.52952 7.58127 7.52952C7.58127 7.4269 7.58127 7.35655 7.58127 7.28659C7.58127 6.3351 7.577 5.3836 7.58244 4.43211C7.59138 2.84785 8.48263 1.58502 9.95495 1.07429C10.1843 0.995001 10.4264 0.953023 10.6624 0.893555C13.0205 0.893555 15.3782 0.893555 17.7364 0.893555C17.7787 0.906381 17.8203 0.923483 17.8635 0.930868C19.1943 1.15747 20.1194 1.89402 20.6169 3.14869C20.7249 3.42076 20.7712 3.71772 20.8458 4.00301V11.0381C20.8314 11.0999 20.8128 11.1614 20.8038 11.2239C20.5683 12.835 19.1648 14.1048 17.5366 14.1464C16.5081 14.1725 15.4785 14.1558 14.4493 14.1581C14.3747 14.1581 14.3004 14.1581 14.2098 14.1581C14.2098 14.2607 14.2098 14.3311 14.2098 14.401C14.2098 15.3525 14.2141 16.304 14.2087 17.2555C14.1997 18.8398 13.3085 20.1026 11.8362 20.6133C11.6072 20.6926 11.3651 20.7346 11.1288 20.7941H4.05477C4.0124 20.7812 3.97081 20.7641 3.92767 20.7567C2.59682 20.5301 1.67176 19.7936 1.17425 18.5389C1.06658 18.2668 1.01994 17.9699 0.945312 17.6846ZM14.2095 12.8304C14.2985 12.8304 14.3564 12.8304 14.4139 12.8304C15.3786 12.8304 16.3437 12.8327 17.3084 12.8296C18.6008 12.8257 19.5192 11.9057 19.5208 10.611C19.5231 8.55836 19.5227 6.50573 19.5208 4.4531C19.5196 3.14091 18.5953 2.21896 17.2808 2.21779C15.2348 2.21624 13.1884 2.21624 11.1424 2.21779C9.82474 2.21896 8.91134 3.1343 8.90901 4.45466C8.90745 5.40654 8.90862 6.35842 8.90901 7.3103C8.90901 7.37871 8.91523 7.44673 8.91912 7.52952C9.0089 7.52952 9.07886 7.52952 9.14921 7.52952C9.73846 7.53185 10.3281 7.52252 10.9169 7.53962C12.2521 7.57849 13.5005 8.48567 13.972 9.7314C14.1418 10.1803 14.2133 10.6409 14.2102 11.1182C14.2064 11.6802 14.2095 12.2423 14.2095 12.8304ZM12.8821 14.1577C12.4612 14.1577 12.0674 14.1635 11.6737 14.1561C11.2862 14.1488 10.8944 14.1589 10.5119 14.108C8.91134 13.895 7.64113 12.4794 7.59138 10.864C7.57311 10.2689 7.58361 9.67271 7.58127 9.07725C7.58127 9.00845 7.58127 8.93965 7.58127 8.85725C7.49576 8.85725 7.43785 8.85725 7.38032 8.85725C6.40901 8.85725 5.43769 8.85414 4.46638 8.85803C3.19617 8.86308 2.27266 9.78426 2.27033 11.0529C2.26644 13.125 2.26644 15.197 2.27033 17.2691C2.27266 18.5339 3.20316 19.4655 4.46716 19.4683C6.53922 19.4725 8.61128 19.4721 10.6833 19.4683C11.9532 19.4659 12.8755 18.5432 12.8809 17.2745C12.8852 16.2966 12.8817 15.3191 12.8817 14.3412C12.8817 14.2899 12.8817 14.2385 12.8817 14.1573L12.8821 14.1577ZM8.91095 8.89457C8.91095 9.50985 8.90085 10.1364 8.91329 10.7626C8.93583 11.8859 9.85156 12.8028 10.9737 12.8261C11.575 12.8385 12.177 12.8296 12.7787 12.8296C12.809 12.8296 12.839 12.8206 12.879 12.814C12.879 12.1715 12.8895 11.5384 12.8767 10.9056C12.8568 9.92457 12.1152 9.01855 11.1424 8.9105C10.4155 8.82966 9.67277 8.89457 8.91095 8.89457Z" fill="black"/>
</svg>
