<svg width="32" height="31" viewBox="0 0 32 31" fill="none" xmlns="http://www.w3.org/2000/svg">
<g clip-path="url(#clip0_92_992)">
<path d="M26.4504 0.397461H5.77763C2.80467 0.397461 0.394531 2.78231 0.394531 5.72406V25.4957C0.394531 28.4374 2.80467 30.8223 5.77763 30.8223H26.4504C29.4233 30.8223 31.8335 28.4374 31.8335 25.4957V5.72406C31.8335 2.78231 29.4233 0.397461 26.4504 0.397461ZM23.9739 11.2494C19.4464 15.7265 14.9212 20.2065 10.389 24.6796C10.2475 24.8195 10.0467 24.9301 9.85352 24.9843C8.5591 25.3471 7.25887 25.6915 5.96039 26.041C5.90742 26.0554 5.85271 26.0641 5.75843 26.0837C5.89404 25.5918 6.02092 25.134 6.14721 24.6761C6.39923 23.761 6.64833 22.8453 6.90791 21.9325C6.94284 21.8104 7.01268 21.6826 7.10289 21.5933C11.6735 17.0637 16.2482 12.5377 20.8228 8.01158C20.8764 7.9586 20.9358 7.9108 20.9689 7.88142C22.0404 8.94168 23.1003 9.99041 24.198 11.0777C24.1409 11.1203 24.0472 11.1756 23.9727 11.2494H23.9739ZM26.7973 8.43833C26.5406 8.72398 26.2519 8.98141 26.0017 9.2279C24.9371 8.17744 23.8761 7.13044 22.7988 6.0673C23.3337 5.53574 23.815 4.9126 24.6554 4.76056C25.6169 4.58664 26.5656 5.00417 27.0557 5.84212C27.5393 6.66913 27.4427 7.72017 26.7979 8.43833H26.7973Z" fill="white"/>
</g>
<defs>
<clipPath id="clip0_92_992">
<rect width="31.439" height="30.4248" fill="white" transform="translate(0.222656 0.397461)"/>
</clipPath>
</defs>
</svg>
