<svg width="36" height="36" viewBox="0 0 36 36" fill="none" xmlns="http://www.w3.org/2000/svg">
<path d="M18.0895 35.8589C15.6876 35.8589 13.4175 35.3977 11.2792 34.4753C9.14086 33.5528 7.27405 32.293 5.67779 30.6967C4.08152 29.1005 2.82168 27.2337 1.89926 25.0953C0.976835 22.957 0.515625 20.6869 0.515625 18.285C0.515625 15.8831 0.976835 13.569 1.89926 11.4307C2.82168 9.29237 4.08152 7.43255 5.67779 5.85126C7.27405 4.26997 9.14086 3.01711 11.2792 2.09469C13.4175 1.17227 15.6876 0.71106 18.0895 0.71106C20.4914 0.71106 22.8055 1.17227 24.9438 2.09469C27.0821 3.01711 28.942 4.26897 30.5232 5.85126C32.1045 7.43355 33.3574 9.29237 34.2798 11.4307C35.2022 13.569 35.6634 15.8531 35.6634 18.285C35.6634 20.7168 35.2022 22.957 34.2798 25.0953C33.3574 27.2337 32.1055 29.1005 30.5232 30.6967C28.942 32.293 27.0821 33.5528 24.9438 34.4753C22.8055 35.3977 20.5214 35.8589 18.0895 35.8589ZM18.0895 33.9102C22.4401 33.9102 26.1318 32.3858 29.1656 29.337C32.1984 26.2883 33.7158 22.6046 33.7158 18.284C33.7158 13.9634 32.1994 10.2417 29.1656 7.20794C26.1328 4.17513 22.4401 2.65773 18.0895 2.65773C13.739 2.65773 10.0852 4.17413 7.03646 7.20794C3.98768 10.2407 2.46329 13.9334 2.46329 18.284C2.46329 22.6345 3.98768 26.2883 7.03646 29.337C10.0852 32.3858 13.7689 33.9102 18.0895 33.9102Z" fill="#7EA4BC"/>
<path d="M18.2766 28.9662C18.7651 28.9662 19.1778 28.7982 19.5139 28.4621C19.8499 28.1261 20.018 27.7133 20.018 27.2248C20.018 26.7362 19.8499 26.3235 19.5139 25.9875C19.1778 25.6514 18.7651 25.4834 18.2766 25.4834C17.788 25.4834 17.3753 25.6514 17.0392 25.9875C16.7032 26.3235 16.5352 26.7362 16.5352 27.2248C16.5352 27.7133 16.7032 28.1261 17.0392 28.4621C17.3753 28.7982 17.788 28.9662 18.2766 28.9662Z" fill="#7EA4BC"/>
<path d="M16.669 22.2726H19.3738C19.3738 21.4782 19.4734 20.7522 19.6715 20.0947C19.8706 19.4373 20.4888 18.6812 21.528 17.8255C22.4758 17.0311 23.1479 16.2513 23.5451 15.4878C23.9424 14.7244 24.1414 13.8834 24.1414 12.9666C24.1414 11.3467 23.6145 10.0481 22.5598 9.07015C21.5051 8.09216 20.1071 7.60361 18.3657 7.60361C16.8681 7.60361 15.5468 7.97801 14.4008 8.7268C13.2547 9.4756 12.4219 10.5075 11.9023 11.8215L14.3323 12.7383C14.6683 11.8827 15.1724 11.2179 15.8454 10.744C16.5184 10.27 17.3119 10.0335 18.2287 10.0335C19.2679 10.0335 20.108 10.3166 20.75 10.8819C21.3919 11.4471 21.7124 12.1731 21.7124 13.0598C21.7124 13.7318 21.5134 14.3665 21.1161 14.9619C20.7189 15.5572 20.1381 16.1764 19.3738 16.8183C18.457 17.6128 17.7767 18.3999 17.3338 19.1788C16.8909 19.9578 16.669 20.9896 16.669 22.2735V22.2726Z" fill="#7EA4BC"/>
</svg>
