<svg width="32" height="32" viewBox="0 0 32 32" fill="none" xmlns="http://www.w3.org/2000/svg">
<g clip-path="url(#clip0_92_1014)">
<path d="M12.9805 22.7665C12.9962 22.7752 13.0119 22.7844 13.0276 22.793C14.1177 22.0737 15.2084 21.3538 16.3201 20.6201C15.5629 20.1323 14.8377 19.6658 14.0782 19.1769C13.7051 20.3967 13.3431 21.5819 12.9811 22.7665H12.9805Z" fill="white"/>
<path d="M22.9952 11.2731C19.208 13.1921 15.422 15.1127 11.6319 17.027C11.4619 17.1129 11.4299 17.2039 11.4625 17.3789C11.6901 18.5895 11.9066 19.8024 12.1284 21.0141C12.1854 21.3262 12.2465 21.6378 12.3059 21.9499C12.6987 20.8378 13.045 19.7309 13.3832 18.6212C13.4513 18.3989 13.5659 18.2307 13.7592 18.0908C15.7311 16.6642 17.6983 15.2308 19.6667 13.7985C20.8447 12.9415 22.0221 12.0834 23.1995 11.2265C23.1937 11.2132 23.1879 11.1994 23.1821 11.1862C23.1198 11.215 23.0564 11.2426 22.9947 11.2737L22.9952 11.2731Z" fill="white"/>
<path d="M26.4504 0.868652H5.77763C2.80467 0.868652 0.394531 3.2535 0.394531 6.19525V25.9669C0.394531 28.9086 2.80467 31.2935 5.77763 31.2935H26.4504C29.4233 31.2935 31.8335 28.9086 31.8335 25.9669V6.19525C31.8335 3.2535 29.4233 0.868652 26.4504 0.868652ZM28.2343 8.51042C28.2005 8.5801 28.1604 8.64748 28.1336 8.71947C26.2665 13.7328 24.3999 18.7461 22.5334 23.7594C22.5223 23.7893 22.5095 23.8181 22.4979 23.8481C22.3419 24.2518 22.098 24.3341 21.7325 24.0997C20.3718 23.2261 18.9953 22.3737 17.6613 21.4621C17.2132 21.1557 16.9239 21.1672 16.4856 21.4736C15.1807 22.3858 13.8351 23.2411 12.5052 24.1182C12.1478 24.3543 11.8522 24.2034 11.7858 23.7911C11.6345 22.85 11.4587 21.9124 11.2882 20.9749C11.0723 19.7868 10.8464 18.5998 10.641 17.41C10.609 17.2257 10.5228 17.1387 10.3709 17.0592C8.22502 15.9437 6.08028 14.8259 3.93961 13.7011C3.79003 13.6228 3.67072 13.4886 3.53744 13.3797V13.1413C3.63522 12.9317 3.81739 12.8568 4.03274 12.813C5.43249 12.5308 6.83109 12.2429 8.23026 11.9567C14.6755 10.6384 21.1208 9.32072 27.5655 7.99958C27.842 7.94314 28.0719 7.97194 28.2337 8.22476V8.51099L28.2343 8.51042Z" fill="white"/>
</g>
<defs>
<clipPath id="clip0_92_1014">
<rect width="31.439" height="30.4248" fill="white" transform="translate(0.222656 0.868652)"/>
</clipPath>
</defs>
</svg>
