<svg width="38" height="38" viewBox="0 0 38 38" fill="none" xmlns="http://www.w3.org/2000/svg">
<path d="M3.85492 29.3456C4.06476 28.877 4.21615 28.3692 4.49786 27.9485C4.95779 27.2606 5.49533 26.6224 6.01562 25.9756C6.1766 25.7754 6.19672 25.6144 6.08461 25.3768C5.85369 24.8871 5.68409 24.3688 5.44646 23.882C5.37364 23.7325 5.17338 23.5773 5.01145 23.5505C4.24011 23.424 3.46302 23.3349 2.68689 23.2448C1.26878 23.08 0.459114 22.1774 0.455281 20.7411C0.452406 19.7187 0.452406 18.6973 0.455281 17.6749C0.459114 16.2635 1.2592 15.3657 2.65623 15.1932C3.43236 15.0974 4.20657 14.9862 4.98366 14.9067C5.26249 14.8779 5.39472 14.7668 5.48575 14.4985C5.6496 14.0165 5.84794 13.5432 6.07024 13.0852C6.19193 12.8341 6.17372 12.6597 6.00125 12.4451C5.49054 11.8117 4.9942 11.1659 4.50074 10.5182C3.70927 9.47857 3.7821 8.2818 4.69716 7.35332C5.45892 6.58006 6.22738 5.81256 6.99968 5.04984C7.92529 4.13669 9.12014 4.06675 10.1636 4.86108C10.773 5.32484 11.3862 5.78573 11.9755 6.2744C12.2515 6.50341 12.4747 6.57527 12.8187 6.39034C13.2509 6.1575 13.7376 6.02719 14.1803 5.80872C14.3317 5.73399 14.4956 5.54235 14.5214 5.38233C14.6498 4.59566 14.7322 3.80133 14.8328 3.00891C15.0111 1.60709 15.9031 0.815626 17.3174 0.811793C18.3551 0.808919 19.3928 0.80796 20.4305 0.811793C21.7883 0.817542 22.6832 1.60134 22.8701 2.95238C22.9764 3.72659 23.0838 4.50176 23.1585 5.27981C23.1882 5.59217 23.2907 5.75507 23.6041 5.85568C24.0879 6.01186 24.5574 6.21883 25.0164 6.44113C25.255 6.55611 25.416 6.52832 25.6143 6.36926C26.2486 5.85951 26.8945 5.36317 27.5403 4.86779C28.578 4.07058 29.7796 4.13382 30.7061 5.04409C31.4918 5.81639 32.2708 6.59444 33.0422 7.3811C33.916 8.27317 33.9956 9.47282 33.2463 10.4722C32.748 11.1362 32.2373 11.7907 31.718 12.4374C31.5484 12.6482 31.511 12.8188 31.6375 13.0766C31.8684 13.548 32.0255 14.0558 32.2603 14.5253C32.3408 14.6863 32.5506 14.8559 32.7231 14.8846C33.5088 15.015 34.3041 15.0916 35.0946 15.197C36.4696 15.381 37.2515 16.275 37.2572 17.6653C37.2611 18.6877 37.2601 19.7091 37.2572 20.7315C37.2534 22.1793 36.4801 23.0532 35.0342 23.2419C34.2591 23.3435 33.4801 23.4192 32.7097 23.5495C32.5391 23.5783 32.3369 23.7555 32.2555 23.9184C32.0275 24.3735 31.8741 24.8651 31.6538 25.3241C31.5273 25.5876 31.533 25.7725 31.7247 26.0053C32.2411 26.6339 32.7356 27.2816 33.2271 27.9313C33.9984 28.9508 33.9266 30.1504 33.0345 31.0607C32.2632 31.8474 31.4851 32.6273 30.6975 33.3977C29.7853 34.2917 28.5885 34.3588 27.57 33.5846C26.9472 33.1112 26.3167 32.6465 25.7207 32.1406C25.4294 31.8934 25.1985 31.8876 24.8736 32.0534C24.4492 32.2699 23.9816 32.4022 23.5571 32.6187C23.3952 32.7011 23.2189 32.9033 23.1901 33.0748C23.0598 33.8452 22.9803 34.6242 22.8835 35.4003C22.7053 36.829 21.8151 37.6185 20.3711 37.6224C19.3497 37.6243 18.3273 37.6252 17.3059 37.6224C15.9194 37.6176 15.0216 36.8299 14.8405 35.4569C14.738 34.6817 14.6307 33.9065 14.5521 33.1294C14.5224 32.8372 14.4256 32.682 14.1314 32.5852C13.6485 32.4261 13.1752 32.2259 12.7191 31.9997C12.4594 31.8704 12.2889 31.9164 12.0809 32.0841C11.4466 32.5938 10.8027 33.093 10.154 33.5846C9.11535 34.3712 7.91858 34.2908 6.98914 33.3728C6.21684 32.6101 5.4503 31.8416 4.68662 31.0693C4.16729 30.5443 3.97757 30.0805 3.97852 29.4021C3.93828 29.3839 3.89708 29.3657 3.85684 29.3475L3.85492 29.3456ZM18.8869 36.0816C19.366 36.0816 19.8451 36.0835 20.3242 36.0816C21.0486 36.0778 21.2642 35.8804 21.3514 35.1761C21.475 34.1786 21.6101 33.1821 21.7366 32.1847C21.7893 31.765 21.9895 31.512 22.4111 31.3577C23.2476 31.0511 24.0688 30.6995 24.8794 30.3287C25.3058 30.1332 25.6555 30.1428 26.0283 30.4417C26.8245 31.0818 27.6361 31.7027 28.4467 32.3236C28.921 32.6868 29.2439 32.6676 29.6674 32.2498C30.4062 31.5206 31.1392 30.7857 31.8694 30.0479C32.3082 29.6043 32.3274 29.2909 31.9441 28.7898C31.3232 27.9782 30.6994 27.1695 30.0641 26.3694C29.7958 26.0322 29.7585 25.7064 29.9377 25.3068C30.3152 24.4646 30.6774 23.6127 31.0012 22.7485C31.1517 22.3479 31.4018 22.1534 31.7994 22.1017C32.8122 21.9704 33.8241 21.8372 34.8368 21.7108C35.4884 21.6293 35.7126 21.3984 35.7165 20.7545C35.7222 19.7321 35.7213 18.7097 35.7165 17.6883C35.7136 17.0358 35.4942 16.8048 34.8474 16.7244C33.8346 16.5979 32.8218 16.4637 31.809 16.3344C31.3874 16.2807 31.143 16.067 30.9897 15.6493C30.6822 14.8128 30.3305 13.9916 29.9597 13.181C29.7633 12.7508 29.7891 12.4039 30.0871 12.034C30.708 11.2637 31.3079 10.476 31.9106 9.69129C32.3389 9.13362 32.3235 8.84521 31.8435 8.36037C31.1354 7.64556 30.4244 6.93459 29.7096 6.22649C29.2372 5.7589 28.9373 5.73686 28.417 6.13642C27.6064 6.75828 26.7977 7.38302 25.9966 8.01734C25.6565 8.28659 25.3297 8.30863 24.9331 8.12945C24.1061 7.75671 23.2725 7.3926 22.4197 7.08311C21.9761 6.92213 21.7845 6.65001 21.7308 6.21404C21.6072 5.20028 21.4721 4.18843 21.3427 3.17468C21.268 2.58922 21.0227 2.3583 20.4305 2.35447C19.3765 2.34776 18.3225 2.3468 17.2685 2.35447C16.6821 2.3583 16.4416 2.59306 16.3669 3.18522C16.2385 4.19802 16.1024 5.21082 15.9788 6.22458C15.9252 6.66534 15.7163 6.92788 15.2794 7.08694C14.4429 7.3926 13.6217 7.74521 12.8111 8.11316C12.401 8.29905 12.0618 8.29234 11.7044 8.00776C10.9062 7.37056 10.0956 6.74775 9.28495 6.12684C8.7819 5.74165 8.47145 5.76082 8.02781 6.19966C7.30151 6.91926 6.57999 7.64269 5.86136 8.36899C5.39664 8.8385 5.37747 9.13842 5.78087 9.66254C6.39315 10.4598 7.00447 11.2589 7.634 12.0436C7.93295 12.4154 7.94253 12.7671 7.74802 13.1935C7.38391 13.9897 7.03417 14.7946 6.73714 15.6177C6.57233 16.0728 6.30691 16.2903 5.84411 16.3449C4.84568 16.4628 3.85013 16.6017 2.85362 16.7263C2.2308 16.8039 2.00083 17.0396 1.997 17.6528C1.99029 18.6906 1.99125 19.7292 1.997 20.7669C2.00083 21.3907 2.22409 21.6293 2.8402 21.7069C3.853 21.8344 4.86484 21.9714 5.8786 22.095C6.32224 22.1496 6.57329 22.369 6.73235 22.804C7.03705 23.6415 7.39062 24.4617 7.76048 25.2733C7.94924 25.6872 7.92433 26.0245 7.64166 26.379C7.01501 27.1647 6.40177 27.9629 5.78949 28.7601C5.36981 29.3053 5.3928 29.5918 5.88435 30.0882C6.57041 30.779 7.25935 31.4679 7.9502 32.155C8.49732 32.6992 8.76753 32.7136 9.39227 32.2287C10.1617 31.6327 10.9349 31.0396 11.6957 30.4321C12.0493 30.1495 12.3885 30.1274 12.8024 30.3152C13.614 30.6841 14.4342 31.0387 15.2717 31.3424C15.7297 31.5082 15.9328 31.7851 15.9865 32.245C16.1053 33.2597 16.2423 34.2716 16.3736 35.2844C16.4455 35.8382 16.6975 36.0711 17.2599 36.0806C17.8022 36.0893 18.3455 36.0826 18.8888 36.0826L18.8869 36.0816Z" fill="#7EA4BC"/>
<path d="M18.8388 26.8821C14.6046 26.8744 11.1858 23.4307 11.1953 19.184C11.2049 14.9527 14.6553 11.5348 18.902 11.5502C23.1314 11.5655 26.5416 15.0207 26.5215 19.2712C26.5023 23.4796 23.0596 26.8897 18.8388 26.8821ZM24.9913 19.2166C24.9913 15.8467 22.2374 13.0852 18.8704 13.0813C15.4985 13.0775 12.7313 15.8285 12.7246 19.1907C12.7169 22.5856 15.4784 25.3547 18.8685 25.3509C22.2336 25.348 24.9913 22.5856 24.9913 19.2166Z" fill="#7EA4BC"/>
</svg>
